<?xml version="1.0" encoding="UTF-8"?>
<svg version="1.1" xmlns="http://www.w3.org/2000/svg" width="359" height="351">
<path d="M0 0 C2.31 0 4.62 0 7 0 C7 75.9 7 151.8 7 230 C4.03 230.33 1.06 230.66 -2 231 C-2.33 231.66 -2.66 232.32 -3 233 C-5.64860427 233.59355614 -8.29197322 233.74209269 -11 234 C-11 234.66 -11 235.32 -11 236 C-13.97 236 -16.94 236 -20 236 C-20 236.99 -20 237.98 -20 239 C-23.07617188 239.29296875 -23.07617188 239.29296875 -26.15234375 239.5859375 C-26.76207031 239.72257813 -27.37179687 239.85921875 -28 240 C-28.33 240.66 -28.66 241.32 -29 242 C-31.64860427 242.59355614 -34.29197322 242.74209269 -37 243 C-37 243.66 -37 244.32 -37 245 C-39.97 245 -42.94 245 -46 245 C-46 245.99 -46 246.98 -46 248 C-48.97 248 -51.94 248 -55 248 C-55 248.99 -55 249.98 -55 251 C-57.64 251.33 -60.28 251.66 -63 252 C-63 252.66 -63 253.32 -63 254 C-65.97 254 -68.94 254 -72 254 C-72 254.99 -72 255.98 -72 257 C-74.97 257 -77.94 257 -81 257 C-81 257.99 -81 258.98 -81 260 C-83.97 260 -86.94 260 -90 260 C-90.33 260.99 -90.66 261.98 -91 263 C-93.31 263 -95.62 263 -98 263 C-98 263.66 -98 264.32 -98 265 C-100.97 265.33 -103.94 265.66 -107 266 C-107 266.66 -107 267.32 -107 268 C-108.134375 268.12375 -109.26875 268.2475 -110.4375 268.375 C-111.613125 268.58125 -112.78875 268.7875 -114 269 C-114.33 269.66 -114.66 270.32 -115 271 C-117.06265822 271.3911938 -119.09443267 271.50674519 -121.1875 271.65625 C-121.785625 271.7696875 -122.38375 271.883125 -123 272 C-123.33 272.66 -123.66 273.32 -124 274 C-126.06265822 274.3911938 -128.09443267 274.50674519 -130.1875 274.65625 C-130.785625 274.7696875 -131.38375 274.883125 -132 275 C-132.33 275.66 -132.66 276.32 -133 277 C-135.64860427 277.59355614 -138.29197322 277.74209269 -141 278 C-141 278.66 -141 279.32 -141 280 C-143.64 280.33 -146.28 280.66 -149 281 C-149 281.66 -149 282.32 -149 283 C-151.31 283 -153.62 283 -156 283 C-156.0227901 253.71638319 -156.04049804 224.43276702 -156.05106533 195.14914316 C-156.0523161 191.69553879 -156.05361042 188.24193443 -156.05493164 184.78833008 C-156.05519395 184.10075099 -156.05545626 183.4131719 -156.05572652 182.70475709 C-156.06008327 171.55713832 -156.06797084 160.40952468 -156.0771528 149.26190896 C-156.08648921 137.83182861 -156.09198068 126.40175245 -156.09408849 114.97166818 C-156.09539604 108.54803777 -156.09848461 102.12441901 -156.10573006 95.70079231 C-156.11248627 89.66233707 -156.11461778 83.62389835 -156.11310768 77.58543968 C-156.11338419 75.36214229 -156.11539167 73.13884437 -156.11920547 70.91555023 C-156.12413649 67.89432741 -156.12300049 64.87316808 -156.12025452 61.85194397 C-156.12316736 60.9599387 -156.1260802 60.06793344 -156.12908131 59.14889771 C-156.11412121 53.11412121 -156.11412121 53.11412121 -155 52 C-152.32941149 51.85884839 -149.67567762 51.95752893 -147 52 C-146.67 51.01 -146.34 50.02 -146 49 C-143.69 49 -141.38 49 -139 49 C-139 48.34 -139 47.68 -139 47 C-134.545 46.505 -134.545 46.505 -130 46 C-130 45.34 -130 44.68 -130 44 C-125.545 43.505 -125.545 43.505 -121 43 C-121 42.34 -121 41.68 -121 41 C-119.865625 40.87625 -118.73125 40.7525 -117.5625 40.625 C-116.386875 40.41875 -115.21125 40.2125 -114 40 C-113.505 39.01 -113.505 39.01 -113 38 C-110.93734178 37.6088062 -108.90556733 37.49325481 -106.8125 37.34375 C-106.214375 37.2303125 -105.61625 37.116875 -105 37 C-104.505 36.01 -104.505 36.01 -104 35 C-101.93734178 34.6088062 -99.90556733 34.49325481 -97.8125 34.34375 C-97.214375 34.2303125 -96.61625 34.116875 -96 34 C-95.505 33.01 -95.505 33.01 -95 32 C-92.35139573 31.40644386 -89.70802678 31.25790731 -87 31 C-87 30.34 -87 29.68 -87 29 C-84.03 28.67 -81.06 28.34 -78 28 C-78 27.34 -78 26.68 -78 26 C-75.03 26 -72.06 26 -69 26 C-69 25.01 -69 24.02 -69 23 C-66.03 23 -63.06 23 -60 23 C-60 22.01 -60 21.02 -60 20 C-57.03 20 -54.06 20 -51 20 C-51 19.01 -51 18.02 -51 17 C-48.36 17 -45.72 17 -43 17 C-42.505 15.515 -42.505 15.515 -42 14 C-39.36 14 -36.72 14 -34 14 C-34 13.34 -34 12.68 -34 12 C-29.545 11.505 -29.545 11.505 -25 11 C-25 10.34 -25 9.68 -25 9 C-22.36 8.67 -19.72 8.34 -17 8 C-17 7.34 -17 6.68 -17 6 C-12.545 5.505 -12.545 5.505 -8 5 C-8 4.34 -8 3.68 -8 3 C-6.865625 2.87625 -5.73125 2.7525 -4.5625 2.625 C-3.386875 2.41875 -2.21125 2.2125 -1 2 C-0.67 1.34 -0.34 0.68 0 0 Z " fill="#FDB012" transform="translate(352,67)"/>
<path d="M0 0 C1.32 0 2.64 0 4 0 C4.33 0.66 4.66 1.32 5 2 C6.86492402 2.38995102 6.86492402 2.38995102 9 2.5 C11.1875 2.65625 11.1875 2.65625 13 3 C13.33 3.66 13.66 4.32 14 5 C16.32156597 5.40729228 18.6568787 5.74438677 21 6 C21 6.66 21 7.32 21 8 C21.62648438 8.04898438 22.25296875 8.09796875 22.8984375 8.1484375 C23.71570313 8.22320312 24.53296875 8.29796875 25.375 8.375 C26.18710937 8.44460937 26.99921875 8.51421875 27.8359375 8.5859375 C30 9 30 9 32 11 C33.98821313 11.39764263 35.98944339 11.73775349 38 12 C38 12.66 38 13.32 38 14 C40.64 14 43.28 14 46 14 C46 14.99 46 15.98 46 17 C48.97 17 51.94 17 55 17 C55 17.99 55 18.98 55 20 C57.97 20 60.94 20 64 20 C64 20.99 64 21.98 64 23 C66.64 23 69.28 23 72 23 C72 23.99 72 24.98 72 26 C74.97 26 77.94 26 81 26 C81 26.99 81 27.98 81 29 C83.97 29 86.94 29 90 29 C90 29.66 90 30.32 90 31 C92.64 31.33 95.28 31.66 98 32 C98 32.99 98 33.98 98 35 C100.97 35 103.94 35 107 35 C107 35.99 107 36.98 107 38 C109.64 38 112.28 38 115 38 C115.33 38.66 115.66 39.32 116 40 C118.32156597 40.40729228 120.6568787 40.74438677 123 41 C123 41.66 123 42.32 123 43 C125.97 43.33 128.94 43.66 132 44 C132 44.66 132 45.32 132 46 C134.64 46.33 137.28 46.66 140 47 C140 47.66 140 48.32 140 49 C142.64 49 145.28 49 148 49 C148.33 49.99 148.66 50.98 149 52 C151.64 52 154.28 52 157 52 C157 52.99 157 53.98 157 55 C157.99 55 158.98 55 160 55 C160 130.24 160 205.48 160 283 C156.37 283 152.74 283 149 283 C149 282.01 149 281.02 149 280 C146.36 280 143.72 280 141 280 C141 279.01 141 278.02 141 277 C138.03 277 135.06 277 132 277 C132 276.01 132 275.02 132 274 C129.03 274 126.06 274 123 274 C123 273.34 123 272.68 123 272 C121.700625 271.87625 120.40125 271.7525 119.0625 271.625 C116.84765625 271.4140625 116.84765625 271.4140625 115 271 C114.67 270.34 114.34 269.68 114 269 C111.67843403 268.59270772 109.3431213 268.25561323 107 268 C107 267.34 107 266.68 107 266 C106.39671875 265.95101563 105.7934375 265.90203125 105.171875 265.8515625 C103.97304687 265.73941406 103.97304687 265.73941406 102.75 265.625 C101.96109375 265.55539062 101.1721875 265.48578125 100.359375 265.4140625 C97.8997872 264.98241298 96.18218182 264.18355624 94 263 C92.6757713 262.63215869 91.34386088 262.28797019 90 262 C90 261.34 90 260.68 90 260 C87.36 260 84.72 260 82 260 C82 259.01 82 258.02 82 257 C79.03 257 76.06 257 73 257 C73 256.01 73 255.02 73 254 C70.36 254 67.72 254 65 254 C65 253.01 65 252.02 65 251 C62.03 251 59.06 251 56 251 C56 250.01 56 249.02 56 248 C53.03 248 50.06 248 47 248 C47 247.34 47 246.68 47 246 C44.36 245.67 41.72 245.34 39 245 C39 244.01 39 243.02 39 242 C36.36 242 33.72 242 31 242 C30.505 241.01 30.505 241.01 30 240 C28.13507598 239.61004898 28.13507598 239.61004898 26 239.5 C23.8125 239.34375 23.8125 239.34375 22 239 C21.505 238.01 21.505 238.01 21 237 C18.67843403 236.59270772 16.3431213 236.25561323 14 236 C14 235.34 14 234.68 14 234 C11.36 233.67 8.72 233.34 6 233 C6 232.34 6 231.68 6 231 C4.02 230.67 2.04 230.34 0 230 C0 154.1 0 78.2 0 0 Z " fill="#FDB012" transform="translate(3,67)"/>
<path d="M0 0 C1.65 0 3.3 0 5 0 C5.33 0.66 5.66 1.32 6 2 C8.35599235 2.46751788 8.35599235 2.46751788 11.0625 2.625 C12.44115234 2.73714844 12.44115234 2.73714844 13.84765625 2.8515625 C14.55792969 2.90054687 15.26820313 2.94953125 16 3 C16 3.66 16 4.32 16 5 C16.61488281 4.96519531 17.22976562 4.93039063 17.86328125 4.89453125 C18.67152344 4.86746094 19.47976562 4.84039063 20.3125 4.8125 C21.51326172 4.76029297 21.51326172 4.76029297 22.73828125 4.70703125 C25.5367327 5.06952496 26.07863263 6.03775247 28 8 C30.05363606 8.3606631 30.05363606 8.3606631 32.1875 8.1875 C34.0746875 8.0946875 34.0746875 8.0946875 36 8 C36 8.99 36 9.98 36 11 C39.3 11 42.6 11 46 11 C46 11.99 46 12.98 46 14 C49.3 14 52.6 14 56 14 C56 14.99 56 15.98 56 17 C59.63 17 63.26 17 67 17 C67 17.66 67 18.32 67 19 C69.97 19.33 72.94 19.66 76 20 C76 20.66 76 21.32 76 22 C79.63 22.33 83.26 22.66 87 23 C87 23.66 87 24.32 87 25 C89.97 25.33 92.94 25.66 96 26 C96 26.99 96 27.98 96 29 C99.3 29 102.6 29 106 29 C106.33 29.66 106.66 30.32 107 31 C109.09508223 31.39085466 109.09508223 31.39085466 111.5 31.5 C113.96875 31.65625 113.96875 31.65625 116 32 C116.33 32.66 116.66 33.32 117 34 C118.86492402 34.38995102 118.86492402 34.38995102 121 34.5 C123.1875 34.65625 123.1875 34.65625 125 35 C125.33 35.66 125.66 36.32 126 37 C128.32506659 37.39156228 128.32506659 37.39156228 131 37.5 C133.75 37.65625 133.75 37.65625 136 38 C136.33 38.66 136.66 39.32 137 40 C138.299375 39.979375 139.59875 39.95875 140.9375 39.9375 C142.29165633 39.91600546 143.64756083 39.92851801 145 40 C146 41 146 41 146.09765625 42.84765625 C146.06510417 44.8984375 146.03255208 46.94921875 146 49 C143.03 49 140.06 49 137 49 C137 49.99 137 50.98 137 52 C134.36 52 131.72 52 129 52 C129 52.99 129 53.98 129 55 C126.03 55 123.06 55 120 55 C120 55.99 120 56.98 120 58 C116.535 58.495 116.535 58.495 113 59 C113 59.66 113 60.32 113 61 C110.03 61 107.06 61 104 61 C104 61.99 104 62.98 104 64 C101.03 64 98.06 64 95 64 C95 64.99 95 65.98 95 67 C92.36 67 89.72 67 87 67 C86.67 67.99 86.34 68.98 86 70 C84.906875 69.938125 83.81375 69.87625 82.6875 69.8125 C78.55033589 70.02286428 78.60647021 70.280205 76 73 C72.8125 73.1875 72.8125 73.1875 70 73 C69.67 73.66 69.34 74.32 69 75 C66.36 75 63.72 75 61 75 C61 75.99 61 76.98 61 78 C58.03 78 55.06 78 52 78 C52 78.99 52 79.98 52 81 C48.92382812 81.29296875 48.92382812 81.29296875 45.84765625 81.5859375 C45.23792969 81.72257812 44.62820312 81.85921875 44 82 C43.67 82.66 43.34 83.32 43 84 C40.36 84 37.72 84 35 84 C35 84.99 35 85.98 35 87 C32.03 87 29.06 87 26 87 C26 87.99 26 88.98 26 90 C23.36 90 20.72 90 18 90 C18 90.99 18 91.98 18 93 C15.03 93 12.06 93 9 93 C9 93.99 9 94.98 9 96 C4.38 96 -0.24 96 -5 96 C-5 95.01 -5 94.02 -5 93 C-7.97 93 -10.94 93 -14 93 C-14 92.01 -14 91.02 -14 90 C-16.97 90 -19.94 90 -23 90 C-23 89.01 -23 88.02 -23 87 C-25.97 87 -28.94 87 -32 87 C-32 86.34 -32 85.68 -32 85 C-33.9490625 84.814375 -33.9490625 84.814375 -35.9375 84.625 C-38.15234375 84.4140625 -38.15234375 84.4140625 -40 84 C-40.33 83.34 -40.66 82.68 -41 82 C-42.89533342 81.53476937 -42.89533342 81.53476937 -45.0625 81.375 C-47.0115625 81.189375 -47.0115625 81.189375 -49 81 C-49 80.01 -49 79.02 -49 78 C-51.97 78 -54.94 78 -58 78 C-58 77.01 -58 76.02 -58 75 C-60.97 75 -63.94 75 -67 75 C-67 74.34 -67 73.68 -67 73 C-68.11375 73.061875 -69.2275 73.12375 -70.375 73.1875 C-71.57125 73.125625 -72.7675 73.06375 -74 73 C-74.66 72.01 -75.32 71.02 -76 70 C-77.32 70 -78.64 70 -80 70 C-81.32 70 -82.64 70 -84 70 C-84.66 69.01 -85.32 68.02 -86 67 C-89.58357241 66.74984127 -89.58357241 66.74984127 -93 67 C-93 66.01 -93 65.02 -93 64 C-95.97 64 -98.94 64 -102 64 C-102 63.01 -102 62.02 -102 61 C-104.64 61 -107.28 61 -110 61 C-110 60.01 -110 59.02 -110 58 C-112.97 58 -115.94 58 -119 58 C-119 57.01 -119 56.02 -119 55 C-121.97 55 -124.94 55 -128 55 C-128 54.01 -128 53.02 -128 52 C-130.97 52 -133.94 52 -137 52 C-137 51.01 -137 50.02 -137 49 C-139.64 49 -142.28 49 -145 49 C-145.33 48.34 -145.66 47.68 -146 47 C-149.02934491 46.34227572 -149.02934491 46.34227572 -152 46 C-152 44.35 -152 42.7 -152 41 C-150.68 40.34 -149.36 39.68 -148 39 C-148 38.67 -148 38.34 -148 38 C-147.21753906 37.95101562 -146.43507812 37.90203125 -145.62890625 37.8515625 C-144.61699219 37.77679688 -143.60507813 37.70203125 -142.5625 37.625 C-141.04849609 37.52058594 -141.04849609 37.52058594 -139.50390625 37.4140625 C-138.67761719 37.27742188 -137.85132813 37.14078125 -137 37 C-136.67 36.34 -136.34 35.68 -136 35 C-132.37 35 -128.74 35 -125 35 C-125 34.01 -125 33.02 -125 32 C-124.21753906 31.95101562 -123.43507813 31.90203125 -122.62890625 31.8515625 C-121.61699219 31.77679688 -120.60507813 31.70203125 -119.5625 31.625 C-118.55316406 31.55539063 -117.54382813 31.48578125 -116.50390625 31.4140625 C-115.67761719 31.27742188 -114.85132813 31.14078125 -114 31 C-113.67 30.34 -113.34 29.68 -113 29 C-110.49609375 28.5859375 -110.49609375 28.5859375 -107.4375 28.375 C-105.91962891 28.26285156 -105.91962891 28.26285156 -104.37109375 28.1484375 C-103.58863281 28.09945313 -102.80617187 28.05046875 -102 28 C-102 27.34 -102 26.68 -102 26 C-98.04 26 -94.08 26 -90 26 C-90 25.01 -90 24.02 -90 23 C-88.93458984 22.92652344 -88.93458984 22.92652344 -87.84765625 22.8515625 C-86.92855469 22.77679687 -86.00945312 22.70203125 -85.0625 22.625 C-83.68771484 22.52058594 -83.68771484 22.52058594 -82.28515625 22.4140625 C-81.53105469 22.27742188 -80.77695313 22.14078125 -80 22 C-79.67 21.34 -79.34 20.68 -79 20 C-76.71484375 19.5859375 -76.71484375 19.5859375 -73.9375 19.375 C-73.01839844 19.30023437 -72.09929687 19.22546875 -71.15234375 19.1484375 C-70.44207031 19.09945313 -69.73179688 19.05046875 -69 19 C-69 18.34 -69 17.68 -69 17 C-65.04 17 -61.08 17 -57 17 C-57 16.01 -57 15.02 -57 14 C-53.37 14 -49.74 14 -46 14 C-46 13.01 -46 12.02 -46 11 C-42.04 11 -38.08 11 -34 11 C-34 10.01 -34 9.02 -34 8 C-33.30132812 8.03480469 -32.60265625 8.06960938 -31.8828125 8.10546875 C-30.97273438 8.13253906 -30.06265625 8.15960938 -29.125 8.1875 C-28.22007812 8.22230469 -27.31515625 8.25710938 -26.3828125 8.29296875 C-25.59648437 8.19628906 -24.81015625 8.09960938 -24 8 C-23.34 7.01 -22.68 6.02 -22 5 C-19.6171875 4.70703125 -19.6171875 4.70703125 -16.875 4.8125 C-15.96492187 4.83957031 -15.05484375 4.86664062 -14.1171875 4.89453125 C-13.41851562 4.92933594 -12.71984375 4.96414062 -12 5 C-11.67 4.34 -11.34 3.68 -11 3 C-8.41682273 2.60534792 -5.85811719 2.49193848 -3.25 2.34375 C-2.5075 2.2303125 -1.765 2.116875 -1 2 C-0.67 1.34 -0.34 0.68 0 0 Z " fill="#FDB012" transform="translate(178,3)"/>
<path d="M0 0 C1.32 0 2.64 0 4 0 C4.33 0.66 4.66 1.32 5 2 C6.89533342 2.46523063 6.89533342 2.46523063 9.0625 2.625 C10.361875 2.74875 11.66125 2.8725 13 3 C13 3.33 13 3.66 13 4 C10.36 4 7.72 4 5 4 C5 78.91 5 153.82 5 231 C3.35 230.67 1.7 230.34 0 230 C0 154.1 0 78.2 0 0 Z " fill="#FDAF0F" transform="translate(3,67)"/>
<path d="M0 0 C1.32 0 2.64 0 4 0 C4 0.99 4 1.98 4 3 C4.99 3 5.98 3 7 3 C7 78.24 7 153.48 7 231 C3.37 231 -0.26 231 -4 231 C-4 230.01 -4 229.02 -4 228 C-6.64 228 -9.28 228 -12 228 C-12 227.34 -12 226.68 -12 226 C-7.05 226 -2.1 226 3 226 C3 151.75 3 77.5 3 1 C2.01 0.67 1.02 0.34 0 0 Z " fill="#FDC146" transform="translate(156,119)"/>
<path d="M0 0 C1.98 0.495 1.98 0.495 4 1 C3.67 75.25 3.34 149.5 3 226 C6.3 226 9.6 226 13 226 C13.33 226.66 13.66 227.32 14 228 C11.36 228.33 8.72 228.66 6 229 C6 229.66 6 230.32 6 231 C3.69 231 1.38 231 -1 231 C-1.0227901 201.71638319 -1.04049804 172.43276702 -1.05106533 143.14914316 C-1.0523161 139.69553879 -1.05361042 136.24193443 -1.05493164 132.78833008 C-1.05519395 132.10075099 -1.05545626 131.4131719 -1.05572652 130.70475709 C-1.06008327 119.55713832 -1.06797084 108.40952468 -1.0771528 97.26190896 C-1.08648921 85.83182861 -1.09198068 74.40175245 -1.09408849 62.97166818 C-1.09539604 56.54803777 -1.09848461 50.12441901 -1.10573006 43.70079231 C-1.11248627 37.66233707 -1.11461778 31.62389835 -1.11310768 25.58543968 C-1.11338419 23.36214229 -1.11539167 21.13884437 -1.11920547 18.91555023 C-1.12413649 15.89432741 -1.12300049 12.87316808 -1.12025452 9.85194397 C-1.12316736 8.9599387 -1.1260802 8.06793344 -1.12908131 7.14889771 C-1.11412121 1.11412121 -1.11412121 1.11412121 0 0 Z " fill="#FEC24A" transform="translate(197,119)"/>
<path d="M0 0 C2.31 0 4.62 0 7 0 C7 75.9 7 151.8 7 230 C6.01 230 5.02 230 4 230 C4 154.76 4 79.52 4 2 C2.68 1.67 1.36 1.34 0 1 C0 0.67 0 0.34 0 0 Z " fill="#FED47F" transform="translate(352,67)"/>
<path d="M0 0 C0 75.24 0 150.48 0 228 C-0.66 228 -1.32 228 -2 228 C-2 153.75 -2 79.5 -2 3 C-5.3 3 -8.6 3 -12 3 C-12 2.34 -12 1.68 -12 1 C-7.89864774 0.35665063 -4.17263102 0 0 0 Z " fill="#FDAB03" transform="translate(356,69)"/>
<path d="M0 0 C1.32 0 2.64 0 4 0 C4 0.66 4 1.32 4 2 C3.34 2 2.68 2 2 2 C2 77.24 2 152.48 2 230 C1.34 230 0.68 230 0 230 C0 154.1 0 78.2 0 0 Z " fill="#FEE3AB" transform="translate(3,67)"/>
<path d="M0 0 C10.56 0 21.12 0 32 0 C32 0.66 32 1.32 32 2 C29.03 2 26.06 2 23 2 C23 2.99 23 3.98 23 5 C18.38 5 13.76 5 9 5 C9 4.01 9 3.02 9 2 C6.03 2 3.06 2 0 2 C0 1.34 0 0.68 0 0 Z " fill="#FEBD38" transform="translate(164,94)"/>
<path d="M0 0 C1.99954746 -0.04254356 4.00041636 -0.04080783 6 0 C7 1 7 1 7.09765625 2.84765625 C7.06510417 4.8984375 7.03255208 6.94921875 7 9 C5.35 9 3.7 9 2 9 C2 6.36 2 3.72 2 1 C1.34 0.67 0.68 0.34 0 0 Z " fill="#FEC149" transform="translate(317,43)"/>
<path d="M0 0 C1.65 0 3.3 0 5 0 C5.33 0.66 5.66 1.32 6 2 C7.98 2 9.96 2 12 2 C12 2.66 12 3.32 12 4 C7.71 4 3.42 4 -1 4 C-0.67 2.68 -0.34 1.36 0 0 Z " fill="#FDC42C" transform="translate(178,3)"/>
<path d="M0 0 C0 1.98 0 3.96 0 6 C-1.65 6 -3.3 6 -5 6 C-5 4.35 -5 2.7 -5 1 C-2 0 -2 0 0 0 Z " fill="#FEC858" transform="translate(31,43)"/>
<path d="M0 0 C2 1 2 1 2 1 Z " fill="#FFFFFF" transform="translate(1,298)"/>
<path d="" fill="#FFFF00" transform="translate(0,0)"/>
<path d="" fill="#FFFF00" transform="translate(0,0)"/>
<path d="" fill="#FFFFFF" transform="translate(0,0)"/>
<path d="" fill="#FFFF00" transform="translate(0,0)"/>
<path d="" fill="#FFFF00" transform="translate(0,0)"/>
<path d="" fill="#FFFF00" transform="translate(0,0)"/>
<path d="" fill="#FFFF00" transform="translate(0,0)"/>
<path d="" fill="#FFFF00" transform="translate(0,0)"/>
<path d="" fill="#FFFF00" transform="translate(0,0)"/>
<path d="" fill="#FFFF00" transform="translate(0,0)"/>
<path d="" fill="#FFFF00" transform="translate(0,0)"/>
<path d="" fill="#FFFF00" transform="translate(0,0)"/>
<path d="" fill="#FFFF00" transform="translate(0,0)"/>
<path d="" fill="#FFFF00" transform="translate(0,0)"/>
<path d="" fill="#FFFF00" transform="translate(0,0)"/>
<path d="" fill="#FFFFFF" transform="translate(0,0)"/>
<path d="" fill="#FFFF00" transform="translate(0,0)"/>
<path d="" fill="#FFFFFF" transform="translate(0,0)"/>
<path d="" fill="#FFFFFF" transform="translate(0,0)"/>
<path d="" fill="#FFFFFF" transform="translate(0,0)"/>
<path d="" fill="#FFFF00" transform="translate(0,0)"/>
<path d="" fill="#FFFF00" transform="translate(0,0)"/>
<path d="" fill="#FFFF00" transform="translate(0,0)"/>
<path d="" fill="#FFFFFF" transform="translate(0,0)"/>
</svg>
