<?xml version="1.0" encoding="UTF-8"?>
<svg version="1.1" xmlns="http://www.w3.org/2000/svg" width="400" height="400">
<path d="M0 0 C1.25759628 -0.00511093 2.51519257 -0.01022186 3.81089783 -0.01548767 C7.24894918 -0.02883952 10.68689035 -0.02946065 14.12496257 -0.02692437 C17.00013754 -0.02585213 19.87529045 -0.03074446 22.75046068 -0.03552979 C29.53580579 -0.04661164 36.32109554 -0.04706975 43.10644531 -0.04101562 C50.09563987 -0.03497532 57.08463313 -0.0472912 64.07379335 -0.06858569 C70.08502733 -0.08622408 76.09619737 -0.09219956 82.10745627 -0.08894795 C85.69307626 -0.08713861 89.27855264 -0.08973625 92.86414909 -0.10366249 C96.86399197 -0.11861746 100.86342722 -0.10925124 104.86328125 -0.09765625 C106.63478546 -0.10912186 106.63478546 -0.10912186 108.44207764 -0.12081909 C115.40367741 -0.07621624 120.56446973 0.39747571 126.31665039 4.60668945 C132.88908457 12.06463123 134.97624849 22.29616754 137.68383789 31.6496582 C138.68880845 34.89648618 139.83927474 38.07895999 140.99633789 41.2746582 C142.75745671 46.14146261 144.37154567 51.0092209 145.81665039 55.9777832 C146.72055152 59.03234565 147.728721 62.04678707 148.75024414 65.0637207 C149.24658507 66.53455297 149.73362354 68.00855808 150.21118164 69.4855957 C151.50171679 73.46183914 152.90708744 77.34478068 154.49633789 81.2121582 C156.14349612 85.25857333 157.44154951 89.31375432 158.64868164 93.5090332 C159.6591977 96.80601646 160.82100979 100.03285771 161.99633789 103.2746582 C163.445186 107.27192664 164.82658977 111.24968609 165.99633789 115.3371582 C167.12489865 119.24223492 168.51257712 122.99018504 169.99633789 126.7746582 C171.80577674 131.39277825 173.3841251 135.99082553 174.75415039 140.75512695 C176.45681383 146.53522125 178.46440032 152.22371233 180.39477539 157.9309082 C183.0009793 165.6826942 185.48118769 173.47284488 187.94677734 181.27026367 C191.13793478 191.64372366 191.13793478 191.64372366 194.99633789 201.7746582 C198.09945381 209.01526201 200.21753662 216.6027514 202.52368164 224.1262207 C204.15772485 229.41553327 205.78074757 234.63476372 207.99633789 239.7121582 C209.13189799 242.40911344 210.00833445 244.88850876 210.80883789 247.6809082 C212.66851371 253.97108947 214.82938301 260.14739104 216.99633789 266.3371582 C223.98483109 286.36853227 223.98483109 286.36853227 225.93383789 293.0871582 C228.0097301 300.06774912 230.22844127 307.00710749 232.86352539 313.7980957 C236.166139 322.39981815 238.7077079 329.84381312 234.87133789 338.6496582 C232.75703304 342.34782393 230.3217734 344.32290539 226.49633789 346.2746582 C222.93991459 347.16818993 219.62169107 347.40194003 215.96217346 347.40837097 C214.86171692 347.41263596 213.76126038 347.41690094 212.62745667 347.42129517 C211.42991257 347.42084198 210.23236847 347.42038879 208.99853516 347.41992188 C207.72972504 347.42328049 206.46091492 347.4266391 205.15365601 347.43009949 C201.68051465 347.43891662 198.20739796 347.44127661 194.73424649 347.44191527 C192.5627417 347.44262695 190.39124315 347.44476349 188.21973991 347.44741249 C180.6396533 347.4566576 173.05958425 347.46074833 165.47949219 347.45996094 C158.42047666 347.45936002 151.36153751 347.46991663 144.30254132 347.4857046 C138.235302 347.49878956 132.16808763 347.50414445 126.10083431 347.50350553 C122.48004813 347.50325087 118.8593299 347.50608457 115.23855782 347.51668358 C111.20016394 347.52818305 107.16194089 347.5236119 103.12353516 347.51757812 C101.33025536 347.52600739 101.33025536 347.52600739 99.50074768 347.53460693 C91.09810207 347.50266136 85.7009012 346.87869483 79.43383789 340.8996582 C76.90705218 338.51258419 74.44302788 336.23358206 71.68774414 334.1105957 C70.96458008 333.50473633 70.24141602 332.89887695 69.49633789 332.2746582 C69.49633789 331.6146582 69.49633789 330.9546582 69.49633789 330.2746582 C68.17633789 329.6146582 66.85633789 328.9546582 65.49633789 328.2746582 C65.49633789 327.6146582 65.49633789 326.9546582 65.49633789 326.2746582 C64.17633789 325.6146582 62.85633789 324.9546582 61.49633789 324.2746582 C61.49633789 323.6146582 61.49633789 322.9546582 61.49633789 322.2746582 C60.59334961 322.12770508 60.59334961 322.12770508 59.67211914 321.9777832 C57.04984026 321.13036812 56.32538227 320.20076891 54.68383789 318.0246582 C52.62979397 315.47909244 50.72295771 313.5803667 47.99633789 311.7746582 C44.78109024 309.62177903 42.58989038 307.1740883 40.16772461 304.18017578 C38.49257857 302.27037227 36.74756797 300.67211919 34.81274414 299.02856445 C29.82221351 294.72372508 25.07180033 290.18217401 20.32055664 285.61645508 C16.57131746 282.0593916 12.90090588 278.98463384 8.49633789 276.2746582 C3.49331327 289.45738306 3.49331327 289.45738306 -0.76147461 302.8918457 C-1.70232031 305.91245558 -2.84881775 308.82946343 -4.00366211 311.7746582 C-6.13343272 317.21386279 -7.90843606 322.65982303 -9.50366211 328.2746582 C-10.06355773 330.15043755 -10.62600994 332.0254559 -11.19116211 333.8996582 C-11.4425293 334.73754883 -11.69389648 335.57543945 -11.95288086 336.4387207 C-12.13463867 337.04458008 -12.31639648 337.65043945 -12.50366211 338.2746582 C-13.16366211 338.2746582 -13.82366211 338.2746582 -14.50366211 338.2746582 C-14.59647461 339.1409082 -14.59647461 339.1409082 -14.69116211 340.0246582 C-15.85893052 343.25847841 -17.6674205 344.40531714 -20.50366211 346.2746582 C-25.07892213 347.58199327 -29.70370607 347.4224889 -34.42138672 347.41992188 C-35.75401802 347.42495979 -35.75401802 347.42495979 -37.11357117 347.43009949 C-40.04439703 347.43958252 -42.97516562 347.44155117 -45.90600586 347.44262695 C-47.94714888 347.44584099 -49.98829167 347.44920518 -52.0294342 347.45271301 C-56.30559829 347.45869738 -60.58174218 347.46055358 -64.85791016 347.45996094 C-70.33332794 347.45985927 -75.80861619 347.4735196 -81.28400326 347.49073315 C-85.49879042 347.50185815 -89.71354629 347.50388 -93.92834663 347.50335121 C-95.94693003 347.50453026 -97.96551426 347.5089478 -99.98408318 347.51668358 C-102.80832854 347.52649497 -105.63229296 347.523601 -108.45654297 347.51757812 C-109.28738403 347.52319763 -110.1182251 347.52881714 -110.97424316 347.53460693 C-117.17374921 347.50105908 -122.55829546 346.71718053 -127.31616211 342.3996582 C-131.10957703 338.37964549 -131.51056567 334.58047472 -131.64428711 329.18481445 C-131.45475771 325.26260874 -130.7807453 321.97474789 -129.50366211 318.2746582 C-129.23424805 317.4187207 -128.96483398 316.5627832 -128.68725586 315.6809082 C-126.55922287 309.05640384 -124.11937418 302.56328885 -121.64746094 296.06225586 C-119.99858679 291.69213721 -118.5583908 287.31908921 -117.28100586 282.8293457 C-116.29889345 279.60169991 -115.15301823 276.44647183 -114.00366211 273.2746582 C-112.56366841 269.29753276 -111.17977401 265.33759024 -110.00366211 261.2746582 C-108.46249671 255.95938889 -106.57109156 250.78272185 -104.69116211 245.5793457 C-103.2250568 241.49932896 -101.85484053 237.39378464 -100.50366211 233.2746582 C-98.0424675 225.80501861 -95.55356249 218.35841891 -92.87866211 210.9621582 C-91.20037914 206.30778961 -89.69138618 201.65043226 -88.31616211 196.8996582 C-87.31119155 193.65283023 -86.16072526 190.47035641 -85.00366211 187.2746582 C-83.24254329 182.40785379 -81.62845433 177.54009551 -80.18334961 172.5715332 C-79.2806174 169.52092092 -78.27393952 166.51032118 -77.25366211 163.49731445 C-76.7441852 161.98745839 -76.24451307 160.4742656 -75.75366211 158.95825195 C-74.63016462 155.49998625 -73.45986001 152.17427839 -72.00366211 148.8371582 C-70.89374254 146.20109922 -70.03147066 143.80089359 -69.24975586 141.07543945 C-67.04590829 133.62164902 -64.53686628 126.26804874 -62.06616211 118.8996582 C-61.58359793 117.45699746 -61.10117527 116.01428937 -60.61889648 114.5715332 C-59.6827886 111.77175138 -58.74601801 108.97219291 -57.80859375 106.17285156 C-54.5523943 96.45620112 -54.5523943 96.45620112 -51.34350586 86.72387695 C-50.00365845 82.62313186 -48.64989741 78.6139241 -46.94116211 74.6496582 C-45.44344762 71.13328505 -44.37091194 67.63424735 -43.30444336 63.9699707 C-41.83633998 59.02854958 -40.14763757 54.15976251 -38.50366211 49.2746582 C-37.64374639 46.69964164 -36.78553606 44.12406139 -35.92773438 41.54833984 C-35.31181633 39.69960935 -34.69511733 37.85113886 -34.07763672 36.00292969 C-32.80634846 32.19660153 -31.54081429 28.3893822 -30.30444336 24.5715332 C-24.63479152 7.09197417 -24.63479152 7.09197417 -18.50366211 2.2746582 C-12.59094486 -0.48428167 -6.38417864 -0.01336932 0 0 Z M52.49633789 143.2746582 C48.67563961 153.30536753 44.99328693 163.29769861 42.18310547 173.66503906 C41.03139604 177.82550572 39.47189956 181.44634004 37.49633789 185.2746582 C36.99272301 186.76006774 36.53177165 188.26085056 36.12133789 189.7746582 C34.90954024 194.00957211 33.49956946 198.13402035 31.99633789 202.2746582 C29.37126038 209.54106252 27.01233375 216.69467891 25.49633789 224.2746582 C43.31633789 224.2746582 61.13633789 224.2746582 79.49633789 224.2746582 C76.93608571 213.97682275 76.93608571 213.97682275 73.49633789 204.0871582 C70.76657145 197.00700962 68.27314029 189.92536576 66.12133789 182.6496582 C62.97610089 172.0672462 59.32636319 161.65491677 55.51196289 151.2980957 C54.61235494 148.62003204 53.97178326 146.05498001 53.49633789 143.2746582 C53.16633789 143.2746582 52.83633789 143.2746582 52.49633789 143.2746582 Z " fill="#0B58A2" transform="translate(148.503662109375,27.725341796875)"/>
<path d="M0 0 C16.17705913 -0.0701446 32.35406877 -0.12301482 48.53124332 -0.15543652 C56.0429347 -0.17089197 63.55453147 -0.19195612 71.06616211 -0.22631836 C77.61486245 -0.25626131 84.16349425 -0.27558461 90.71226114 -0.28226548 C94.1783935 -0.28616949 97.64432984 -0.29531659 101.11039925 -0.31719017 C104.98387393 -0.34143552 108.85715849 -0.34196685 112.73071289 -0.34057617 C113.87438828 -0.351362 115.01806366 -0.36214783 116.19639587 -0.3732605 C123.06688539 -0.3465655 128.14248114 0.17722332 133.8203125 4.33203125 C140.39274668 11.78997303 142.4799106 22.02150933 145.1875 31.375 C146.19247056 34.62182797 147.34293685 37.80430179 148.5 41 C150.26111882 45.86680441 151.87520778 50.73456269 153.3203125 55.703125 C154.22421363 58.75768745 155.23238311 61.77212887 156.25390625 64.7890625 C156.75024717 66.25989477 157.23728565 67.73389988 157.71484375 69.2109375 C159.0053789 73.18718093 160.41074955 77.07012248 162 80.9375 C163.64715823 84.98391512 164.94521162 89.03909612 166.15234375 93.234375 C167.1628598 96.53135826 168.3246719 99.75819951 169.5 103 C170.94884811 106.99726844 172.33025188 110.97502789 173.5 115.0625 C174.62856076 118.96757671 176.01623923 122.71552684 177.5 126.5 C179.30943885 131.11812005 180.88778721 135.71616733 182.2578125 140.48046875 C183.96047594 146.26056305 185.96806243 151.94905413 187.8984375 157.65625 C190.50464141 165.408036 192.9848498 173.19818668 195.45043945 180.99560547 C198.64159689 191.36906546 198.64159689 191.36906546 202.5 201.5 C205.60311592 208.74060381 207.72119873 216.3280932 210.02734375 223.8515625 C211.66138696 229.14087507 213.28440968 234.36010551 215.5 239.4375 C216.6355601 242.13445524 217.51199656 244.61385056 218.3125 247.40625 C220.17217582 253.69643127 222.33304512 259.87273283 224.5 266.0625 C231.4884932 286.09387407 231.4884932 286.09387407 233.4375 292.8125 C235.51339221 299.79309091 237.73210338 306.73244928 240.3671875 313.5234375 C243.66980111 322.12515995 246.21137001 329.56915492 242.375 338.375 C240.26069515 342.07316572 237.82543551 344.04824719 234 346 C230.5150904 346.87157987 227.27617759 347.1238867 223.69120789 347.12025452 C222.11586525 347.12231651 222.11586525 347.12231651 220.50869751 347.12442017 C219.36718231 347.12082489 218.22566711 347.11722961 217.04956055 347.11352539 C215.83938766 347.11367142 214.62921478 347.11381744 213.38237 347.1139679 C210.07282968 347.11339145 206.76335207 347.10838317 203.45382285 347.10139394 C199.99182556 347.09513404 196.52982739 347.09455451 193.06782532 347.09336853 C186.51602985 347.09026299 179.96425112 347.08206007 173.41246301 347.07201904 C165.95179 347.06083378 158.49111618 347.05534137 151.03043687 347.05032361 C135.68694824 347.03987681 120.34347628 347.02229242 105 347 C105 346.67 105 346.34 105 346 C105.88751953 345.87044922 105.88751953 345.87044922 106.79296875 345.73828125 C112.35504727 344.74926566 115.36998484 343.59090153 119 339 C119.598125 338.2575 120.19625 337.515 120.8125 336.75 C123.69937186 330.06461254 121.85779729 323.3115078 119.3125 316.8125 C119.04139404 316.08345459 118.77028809 315.35440918 118.4909668 314.60327148 C117.93707083 313.11428117 117.37762618 311.62734251 116.8125 310.14257812 C115.60667232 306.96278735 114.45896068 303.76420116 113.3125 300.5625 C112.90902344 299.43585938 112.50554687 298.30921875 112.08984375 297.1484375 C110.84795269 293.56075222 109.74296996 289.94852064 108.6796875 286.3046875 C107.1984998 281.28226942 105.5951492 276.36388359 103.5 271.5625 C101.99042774 267.97726588 100.88603053 264.42411772 99.80078125 260.6953125 C98.70183732 256.99642806 97.47269581 253.34698914 96.23828125 249.69140625 C95.24289224 246.72407939 94.26385632 243.75271294 93.29296875 240.77734375 C92.9877832 239.84768799 92.68259766 238.91803223 92.36816406 237.96020508 C91.75856651 236.10310738 91.1523185 234.24490605 90.54980469 232.38549805 C89.3650134 228.79138627 88.19089102 225.38178205 86.49609375 221.9921875 C84.40381459 217.80762918 83.05898553 213.44583474 81.625 209 C81.00899848 207.11940278 80.39180779 205.23919467 79.7734375 203.359375 C79.47276367 202.44478516 79.17208984 201.53019531 78.86230469 200.58789062 C77.33551447 196.00579089 75.68970281 191.46885045 74.05078125 186.92578125 C71.90006154 180.93734608 69.9666987 174.90257938 68.125 168.8125 C66.3618835 163.02326307 64.36012197 157.34944188 62.24609375 151.6796875 C61.2890634 148.85359789 60.48603187 146.09993521 59.73828125 143.21875 C57.73530247 135.7332302 55.15330682 128.44860306 52.61801147 121.13067627 C51.14591236 116.88118889 49.68532652 112.62773982 48.22265625 108.375 C47.79506767 107.13346664 47.79506767 107.13346664 47.35884094 105.86685181 C44.45871544 97.44192813 41.63592851 88.99233382 38.83886719 80.53271484 C37.17141081 75.49831658 35.49061311 70.46835376 33.8125 65.4375 C33.173129 63.51954728 32.53380457 61.60157903 31.89453125 59.68359375 C31.58596191 58.75788574 31.27739258 57.83217773 30.95947266 56.87841797 C26 42 26 42 24.94433594 38.83276367 C24.29789093 36.89359577 23.65106243 34.95455568 23.00390625 33.015625 C22.32110835 30.9645745 21.64154023 28.91244659 20.96484375 26.859375 C19.98783463 23.9023436 18.99483659 20.95106988 18 18 C17.75507813 17.23429687 17.51015625 16.46859375 17.2578125 15.6796875 C15.6303969 10.87058298 13.75821556 7.43836743 10 4 C6.73042528 2.67110843 3.44256021 1.76204245 0 1 C0 0.67 0 0.34 0 0 Z " fill="#32AEE9" transform="translate(141,28)"/>
<path d="M0 0 C0.88761017 -0.00137466 1.77522034 -0.00274933 2.68972778 -0.00416565 C3.6607695 -0.00057037 4.63181122 0.0030249 5.63227844 0.00672913 C7.16912292 0.00651009 7.16912292 0.00651009 8.73701477 0.00628662 C12.1296143 0.00698429 15.52215919 0.0147699 18.91474915 0.02259827 C21.2645871 0.02446296 23.61442544 0.02588662 25.96426392 0.02688599 C32.15386526 0.03070708 38.34344319 0.04053392 44.53303528 0.05158997 C50.84711897 0.06181283 57.16120644 0.06638549 63.47529602 0.07142639 C75.86788444 0.08215652 88.26045547 0.09922809 100.6530304 0.12025452 C100.85219055 0.65787415 101.05135071 1.19549377 101.25654602 1.74940491 C101.52144836 2.46088684 101.78635071 3.17236877 102.0592804 3.90541077 C102.32031555 4.6080304 102.58135071 5.31065002 102.85029602 6.03456116 C103.566763 7.89611147 104.35527458 9.72956411 105.1530304 11.55775452 C107.53898986 17.22440823 109.34408123 23.0420287 111.0905304 28.93275452 C112.49574968 33.66805075 114.03581823 38.35017302 115.6139679 43.03041077 C116.31612459 45.11840303 117.00859544 47.20967374 117.6920929 49.30384827 C119.07345938 53.52703359 120.45572622 57.66250884 122.2155304 61.74525452 C123.35015177 64.40914817 124.21775548 66.88959031 125.0202179 69.65541077 C126.63678367 75.12134594 128.40617025 80.52802068 130.2155304 85.93275452 C130.51910461 86.84734436 130.82267883 87.7619342 131.13545227 88.70423889 C132.29355148 92.17349032 133.44060433 95.60735737 134.8405304 98.98744202 C136.53551281 103.43677086 136.57914029 107.99130866 134.67256165 112.37416077 C132.06562996 116.72974201 129.65696975 120.20092025 124.64912415 121.73353577 C117.60073975 123.48668722 111.49767063 123.88906627 104.6530304 121.12025452 C102.05537415 119.09681702 102.05537415 119.09681702 99.5905304 116.74525452 C97.06374469 114.3581805 94.59972038 112.07917837 91.84443665 109.95619202 C91.12127258 109.35033264 90.39810852 108.74447327 89.6530304 108.12025452 C89.6530304 107.46025452 89.6530304 106.80025452 89.6530304 106.12025452 C87.6730304 105.13025452 87.6730304 105.13025452 85.6530304 104.12025452 C85.6530304 103.46025452 85.6530304 102.80025452 85.6530304 102.12025452 C83.6730304 101.13025452 83.6730304 101.13025452 81.6530304 100.12025452 C81.6530304 99.46025452 81.6530304 98.80025452 81.6530304 98.12025452 C81.05103821 98.02228577 80.44904602 97.92431702 79.82881165 97.82337952 C77.20653276 96.97596444 76.48207477 96.04636522 74.8405304 93.87025452 C72.78648647 91.32468875 70.87965022 89.42596301 68.1530304 87.62025452 C64.9377475 85.46735175 62.74660778 83.01949176 60.32417297 80.02577209 C58.65002839 78.11683149 56.90645899 76.51772766 54.9733429 74.87416077 C49.96672329 70.55445465 45.18445322 66.01355709 40.38935852 61.46205139 C37.5569806 58.78778504 34.76363203 56.2073021 31.6999054 53.79603577 C29.33943827 51.86351592 29.31812128 50.97064401 28.6530304 48.12025452 C26.8537046 47.05308748 26.8537046 47.05308748 24.6530304 46.12025452 C21.9030304 44.12025452 21.9030304 44.12025452 19.6530304 42.12025452 C19.6530304 41.46025452 19.6530304 40.80025452 19.6530304 40.12025452 C18.3330304 39.46025452 17.0130304 38.80025452 15.6530304 38.12025452 C15.6530304 37.46025452 15.6530304 36.80025452 15.6530304 36.12025452 C15.08068665 35.86244202 14.5083429 35.60462952 13.9186554 35.33900452 C11.44174045 34.0065951 9.51891379 32.46969334 7.4030304 30.62025452 C6.69662415 30.01181702 5.9902179 29.40337952 5.2624054 28.77650452 C3.6530304 27.12025452 3.6530304 27.12025452 3.6530304 25.12025452 C3.10002258 24.8869342 2.54701477 24.65361389 1.97724915 24.41322327 C-0.96297455 22.77756941 -3.11347407 20.7679245 -5.5344696 18.43275452 C-6.41489929 17.60388733 -7.29532898 16.77502014 -8.20243835 15.92103577 C-10.78759786 12.5447892 -11.25360787 10.34118758 -11.3469696 6.12025452 C-10.6869696 5.13025452 -10.0269696 4.14025452 -9.3469696 3.12025452 C-8.6869696 3.12025452 -8.0269696 3.12025452 -7.3469696 3.12025452 C-7.3469696 2.46025452 -7.3469696 1.80025452 -7.3469696 1.12025452 C-4.55095944 0.18825113 -2.88694451 -0.00344916 0 0 Z " fill="#0074CD" transform="translate(128.3469696044922,251.87974548339844)"/>
</svg>
