<?xml version="1.0" encoding="UTF-8"?>
<svg version="1.1" xmlns="http://www.w3.org/2000/svg" width="1072" height="1072">
<path d="M0 0 C1.29034149 -0.00067474 2.58068298 -0.00134949 3.91012573 -0.00204468 C24.5194304 0.01503913 44.80328693 0.63842606 65.25 3.25 C65.9228302 3.33485657 66.5956604 3.41971313 67.28887939 3.50714111 C151.58864552 14.2076537 233.24120421 43.94797553 340.25 120.25 C341.31605475 121.14234718 342.38248115 122.03425048 343.44921875 122.92578125 C349.29923427 127.82935788 355.06891319 132.8054494 360.71191406 137.94750977 C362.30490426 139.39263198 363.90468033 140.83034581 365.51416016 142.25708008 C371.54578188 147.61145161 377.32943013 153.1734778 383.01928711 158.88891602 C384.44337492 160.31839717 385.87278044 161.74240511 387.30273438 163.16601562 C392.49594154 168.36646071 397.48424476 173.65716089 402.25 179.25 C403.29508397 180.44167726 404.34194006 181.6318029 405.390625 182.8203125 C412.14145381 190.5209959 418.66461405 198.34713063 424.890625 206.47851562 C426.24070178 208.23788293 427.60440336 209.98606223 428.96875 211.734375 C443.93894751 231.11231936 457.24447737 251.92736461 469.25 273.25 C469.80606934 274.23194336 470.36213867 275.21388672 470.93505859 276.22558594 C524.22724323 370.91719381 524.22724323 370.91719381 516.6015625 412.8125 C508.89511675 438.10545015 481.7875759 452.18584005 460.06201172 463.78076172 C439.40223736 474.5752158 410.95060092 488.25 387.25 488.25 C387.37846313 489.12060059 387.37846313 489.12060059 387.50952148 490.00878906 C392.06558038 521.59664372 392.11569578 552.70252152 387.25 584.25 C388.2105127 584.39767822 389.17102539 584.54535645 390.16064453 584.69750977 C428.73493838 590.84928052 471.02513353 608.81795354 500.25 635.25 C500.98476562 635.89195312 501.71953125 636.53390625 502.4765625 637.1953125 C510.80417493 644.89913373 516.92088818 656.15452969 517.71875 667.6171875 C517.99701368 679.55483146 515.97354851 689.95745826 512.25 701.25 C511.88471191 702.36391113 511.51942383 703.47782227 511.14306641 704.62548828 C504.59286483 724.31813201 496.79195509 743.34528925 488.25 762.25 C487.8674707 763.10754883 487.48494141 763.96509766 487.09082031 764.84863281 C469.44080093 804.35427427 445.21190027 842.24011065 417.25 875.25 C416.35765282 876.31605475 415.46574952 877.38248115 414.57421875 878.44921875 C409.67064212 884.29923427 404.6945506 890.06891319 399.55249023 895.71191406 C398.10736802 897.30490426 396.66965419 898.90468033 395.24291992 900.51416016 C389.88854839 906.54578188 384.3265222 912.32943013 378.61108398 918.01928711 C377.18160283 919.44337492 375.75759489 920.87278044 374.33398438 922.30273438 C369.13353929 927.49594154 363.84283911 932.48424476 358.25 937.25 C357.05832274 938.29508397 355.8681971 939.34194006 354.6796875 940.390625 C346.9790041 947.14145381 339.15286937 953.66461405 331.02148438 959.890625 C329.26211707 961.24070178 327.51393777 962.60440336 325.765625 963.96875 C308.5771575 977.24424557 290.15285931 989.55007641 271.25 1000.25 C270.56212402 1000.64058594 269.87424805 1001.03117188 269.16552734 1001.43359375 C264.61486944 1004.00818937 260.04226325 1006.5400238 255.45263672 1009.04443359 C253.4118222 1010.16143006 251.37945983 1011.29251055 249.34765625 1012.42578125 C194.8860448 1042.42570499 132.89562294 1060.38952063 71.4375 1068.5 C70.29659912 1068.65114258 69.15569824 1068.80228516 67.98022461 1068.95800781 C45.96346539 1071.67957721 23.98438359 1072.62945794 1.8125 1072.5625 C0.54963165 1072.56067719 -0.71323669 1072.55885437 -2.01437378 1072.55697632 C-22.40816958 1072.50763169 -42.51704903 1071.8453196 -62.75 1069.25 C-63.43225647 1069.16278687 -64.11451294 1069.07557373 -64.81744385 1068.98571777 C-116.20331047 1062.35537941 -166.24967834 1049.00448069 -213.75 1028.25 C-215.34448975 1027.55487305 -215.34448975 1027.55487305 -216.97119141 1026.84570312 C-254.55044163 1010.31015255 -290.33590751 989.50655026 -322.75 964.25 C-323.28995605 963.83331055 -323.82991211 963.41662109 -324.38623047 962.98730469 C-335.69350301 954.26100542 -346.65798234 945.17013731 -357.21655273 935.5480957 C-358.7957673 934.11558663 -360.38208197 932.69081861 -361.97900391 931.27807617 C-368.33113579 925.64762488 -374.38649177 919.76831339 -380.3737793 913.7565918 C-381.9427236 912.18225845 -383.51698558 910.61338411 -385.09179688 909.04492188 C-390.52230317 903.61831435 -395.77397378 898.10016066 -400.75 892.25 C-401.77110281 891.09298745 -402.79451661 889.93801002 -403.8203125 888.78515625 C-411.33628254 880.26770665 -418.35226136 871.46042487 -425.15917969 862.36865234 C-426.72318882 860.28570709 -428.30090477 858.21390459 -429.8828125 856.14453125 C-445.12258047 836.14445444 -458.57304764 814.77399301 -470.47119141 792.62695312 C-471.34784344 790.99749833 -472.23065333 789.37134583 -473.11865234 787.74804688 C-487.18428638 761.99882309 -498.51323265 735.08613285 -507.75 707.25 C-508.32741943 705.52547607 -508.32741943 705.52547607 -508.91650391 703.76611328 C-522.0771277 664.10781124 -530.27324877 622.88170376 -533.75 581.25 C-533.89139404 579.70747559 -533.89139404 579.70747559 -534.03564453 578.13378906 C-535.12584464 564.61842813 -534.99386341 551.05011149 -535 537.5 C-535.00044186 536.83331173 -535.00088371 536.16662346 -535.00133896 535.47973251 C-535.00881939 513.92673764 -534.4902332 492.64323792 -531.75 471.25 C-531.62625 470.25456177 -531.62625 470.25456177 -531.5 469.23901367 C-520.23625195 378.66331661 -485.63274033 291.1974576 -426.75 212.25 C-426.12061523 211.43354004 -426.12061523 211.43354004 -425.47851562 210.60058594 C-416.74629337 199.28694032 -407.64762944 188.32279448 -398.015625 177.76171875 C-396.78850868 176.40131221 -395.56748451 175.03476793 -394.38256836 173.63745117 C-389.08328357 167.42334591 -383.3344178 161.6828364 -377.55297852 155.92260742 C-375.816064 154.191053 -374.08456111 152.45421641 -372.35351562 150.71679688 C-366.65363485 145.01318698 -360.90582141 139.46524142 -354.75 134.25 C-353.59281728 133.22909003 -352.43784913 132.20566417 -351.28515625 131.1796875 C-342.75283275 123.65059243 -333.92910888 116.62716461 -324.8203125 109.81005859 C-322.87636171 108.34521832 -320.95131269 106.85922753 -319.03125 105.36328125 C-243.09196559 46.5965505 -149.61070142 13.08111625 -42.75 1.25 C-41.63641113 1.1454248 -40.52282227 1.04084961 -39.37548828 0.93310547 C-26.27976136 -0.11492765 -13.12887357 0.00617081 0 0 Z M-208.75 106.25 C-209.84618652 106.78850586 -210.94237305 107.32701172 -212.07177734 107.88183594 C-235.42470604 119.44857495 -257.83417425 132.67688701 -278.75 148.25 C-279.45946777 148.7769043 -280.16893555 149.30380859 -280.89990234 149.84667969 C-290.47116343 156.98751428 -299.73431387 164.42125294 -308.75 172.25 C-309.48476563 172.88421875 -310.21953125 173.5184375 -310.9765625 174.171875 C-312.91186646 175.8527366 -314.83117856 177.55035526 -316.75 179.25 C-317.4315918 179.84748047 -318.11318359 180.44496094 -318.81542969 181.06054688 C-325.77704489 187.23086737 -332.39700004 193.71082017 -338.97290039 200.28759766 C-340.80791722 202.12042269 -342.6508125 203.9450701 -344.49414062 205.76953125 C-351.38324199 212.62625897 -357.70798062 219.62853813 -363.75 227.25 C-364.74447318 228.41437318 -365.7471642 229.571832 -366.76171875 230.71875 C-424.52375292 296.04989407 -460.11780237 382.3434129 -472.5625 468.1875 C-472.71168884 469.20221375 -472.71168884 469.20221375 -472.8638916 470.23742676 C-476.01480834 491.98818771 -477.13715167 513.78809191 -477.0625 535.75 C-477.06067719 536.87619751 -477.05885437 538.00239502 -477.05697632 539.16271973 C-477.00588698 558.02683506 -476.22788431 576.53411673 -473.75 595.25 C-473.66514343 595.90045288 -473.58028687 596.55090576 -473.49285889 597.22106934 C-463.20189924 675.69232464 -434.16829949 752.56376782 -386.75 816.25 C-386.2230957 816.95946777 -385.69619141 817.66893555 -385.15332031 818.39990234 C-378.47696648 827.34859381 -371.55924242 836.02763826 -364.24780273 844.46484375 C-363.14523082 845.77894413 -362.07348218 847.11905859 -361.01977539 848.47265625 C-354.30013091 857.01333166 -346.69099338 864.57837381 -338.98413086 872.22167969 C-336.6834681 874.50399976 -334.39099496 876.79430719 -332.09960938 879.0859375 C-330.61765927 880.56297349 -329.13525297 882.03955194 -327.65234375 883.515625 C-326.97815903 884.1886969 -326.3039743 884.8617688 -325.60935974 885.55523682 C-321.14395818 889.97688059 -316.51636199 894.15604593 -311.75 898.25 C-310.78578125 899.095625 -309.8215625 899.94125 -308.828125 900.8125 C-299.17857932 909.1292355 -289.03052073 916.73402172 -278.75 924.25 C-277.95207031 924.8368457 -277.15414062 925.42369141 -276.33203125 926.02832031 C-209.97552744 974.58921628 -130.17822041 1003.32524363 -48.75 1012.25 C-47.74356445 1012.36714355 -46.73712891 1012.48428711 -45.70019531 1012.60498047 C44.44212053 1022.78038781 136.78311637 1003.36434893 290.25 917.25 C290.78898926 916.83572754 291.32797852 916.42145508 291.88330078 915.99462891 C310.25870114 901.85849779 327.21675242 886.36063367 343.625 870 C344.14737244 869.4803064 344.66974487 868.96061279 345.20794678 868.4251709 C351.10822147 862.54784906 356.8634595 856.60853425 362.25 850.25 C363.095625 849.28578125 363.94125 848.3215625 364.8125 847.328125 C373.12847405 837.67946281 380.72643591 827.52345829 388.25 817.25 C388.78802246 816.5173291 389.32604492 815.7846582 389.88037109 815.02978516 C418.71052457 775.57944177 440.34853988 731.52333297 456.125 685.375 C456.36976074 684.66867432 456.61452148 683.96234863 456.86669922 683.23461914 C457.9319053 679.97455633 458.36446931 678.59340793 457.25 675.25 C455.47427836 673.77543108 455.47427836 673.77543108 453.2265625 672.4296875 C452.38077637 671.89891602 451.53499023 671.36814453 450.66357422 670.82128906 C449.74334473 670.26151367 448.82311523 669.70173828 447.875 669.125 C446.92254395 668.54459961 445.97008789 667.96419922 444.98876953 667.36621094 C421.91607611 653.52642438 396.81251362 644.58117383 370.25 640.25 C369.71826172 641.54744141 369.71826172 641.54744141 369.17578125 642.87109375 C360.5234289 663.51766774 349.44930157 682.9477139 338.05908203 702.18017578 C334.93961658 707.4735845 331.87769589 712.80004372 328.8125 718.125 C328.18931885 719.20587891 327.5661377 720.28675781 326.92407227 721.40039062 C323.78881199 726.83867003 320.65807038 732.27952024 317.53125 737.72265625 C314.42502411 743.12702403 311.30770298 748.52484593 308.18115234 753.91748047 C306.86657664 756.18599606 305.55419064 758.45564972 304.24462891 760.72705078 C289.91888408 785.54786172 273.92979846 807.46564939 254.25 828.25 C253.54101562 829.00152344 252.83203125 829.75304687 252.1015625 830.52734375 C246.86924745 835.91983171 241.11210185 840.56327544 235.25 845.25 C234.10158071 846.19896926 232.95449954 847.14955964 231.80859375 848.1015625 C175.80365334 894.29547342 107.05814172 909.64291348 35.96484375 909.515625 C33.24076699 909.51607475 30.51669334 909.51892308 27.7926178 909.52142334 C22.13117474 909.52501952 16.46978456 909.52037997 10.80834961 909.51074219 C4.34342872 909.49986088 -2.12136588 909.50339876 -8.58628374 909.514395 C-14.22541511 909.52358787 -19.86450937 909.52469585 -25.50364584 909.51951766 C-28.83299569 909.51646332 -32.16224131 909.51663495 -35.49159431 909.52259064 C-119.59708772 909.64011788 -193.12006494 883.3727161 -253.4375 823.75 C-258.95448606 818.22571526 -263.9563349 812.41698537 -268.75 806.25 C-269.53761719 805.26773438 -270.32523438 804.28546875 -271.13671875 803.2734375 C-283.75718696 787.40863299 -293.66020351 769.77804476 -303.75 752.25 C-304.98270882 750.11567509 -306.21578329 747.98156132 -307.44921875 745.84765625 C-310.58988343 740.41154244 -313.72519427 734.9723619 -316.85888672 729.53222656 C-319.36348921 725.18522478 -321.87057047 720.83965603 -324.37817383 716.49438477 C-325.6247248 714.33377229 -326.87065722 712.17280282 -328.1159668 710.01147461 C-331.2780474 704.52483299 -334.45005006 699.04434611 -337.640625 693.57421875 C-341.38081441 687.15371728 -345.08564828 680.71409292 -348.75 674.25 C-349.51570313 672.90010986 -349.51570313 672.90010986 -350.296875 671.52294922 C-369.00775325 638.18162282 -379.89315419 601.20948249 -383.75 563.25 C-383.91822266 561.67412109 -383.91822266 561.67412109 -384.08984375 560.06640625 C-390.17368274 491.97741372 -368.62558363 431.18438229 -334.60742188 373.41650391 C-331.48053079 368.08582865 -328.39684498 362.73036894 -325.3125 357.375 C-324.68956055 356.29460449 -324.06662109 355.21420898 -323.42480469 354.10107422 C-320.28941159 348.66224252 -317.15834179 343.22095222 -314.03125 337.77734375 C-310.28492657 331.26003026 -306.52446859 324.75105426 -302.75 318.25 C-302.41659607 317.67558167 -302.08319214 317.10116333 -301.73968506 316.50933838 C-287.20986889 291.49415906 -271.86625873 268.18621493 -251.75 247.25 C-251.234375 246.71246094 -250.71875 246.17492187 -250.1875 245.62109375 C-243.10539551 238.28362492 -235.81621184 231.5137064 -227.75 225.25 C-226.24179687 224.05117188 -226.24179687 224.05117188 -224.703125 222.828125 C-211.21248488 212.17652577 -196.91676529 203.31201154 -181.75 195.25 C-181.09451172 194.89695801 -180.43902344 194.54391602 -179.76367188 194.18017578 C-133.81686283 169.56917986 -83.89142667 163.09633887 -32.57421875 163.08203125 C-31.2189361 163.08060321 -29.86365361 163.07900628 -28.50837135 163.07724571 C-21.40328172 163.06803703 -14.29821063 163.06390469 -7.19311523 163.06469727 C-0.65517532 163.06529508 5.88268132 163.05479006 12.42060024 163.0389536 C18.10113182 163.02570319 23.78163681 163.02052063 29.46218365 163.02115268 C32.82471714 163.02140284 36.18711877 163.01784654 39.54964638 163.00797462 C61.83242499 162.94869976 84.42024503 163.20944871 106.375 167.4375 C107.51912354 167.65108154 108.66324707 167.86466309 109.84204102 168.0847168 C170.78061464 179.92490663 229.20534774 212.33530047 269.25 260.25 C269.67265137 260.75354004 270.09530273 261.25708008 270.53076172 261.77587891 C284.09787843 278.03469646 294.91178555 295.72781566 305.42480469 314.06738281 C307.25851053 317.26483992 309.10058798 320.45732637 310.9453125 323.6484375 C314.08777967 329.08556766 317.22430493 334.52609421 320.35888672 339.96777344 C322.86339853 344.31461785 325.37037933 348.66003481 327.87792969 353.00512695 C329.12536965 355.16732369 330.37211525 357.32992118 331.61816406 359.49291992 C334.76606004 364.95571121 337.92497817 370.41158128 341.10546875 375.85546875 C351.76589622 394.13821684 362.45542551 412.52425666 370.25 432.25 C398.36158551 427.6662409 424.82063649 417.85383555 449 402.8125 C450.22589844 402.05005981 450.22589844 402.05005981 451.4765625 401.2722168 C452.22164062 400.79179932 452.96671875 400.31138184 453.734375 399.81640625 C454.39147461 399.39302979 455.04857422 398.96965332 455.72558594 398.53344727 C457.54815131 397.22563475 457.54815131 397.22563475 458.25 394.25 C457.63369655 391.54393627 457.63369655 391.54393627 456.546875 388.52734375 C456.14944092 387.36251465 455.75200684 386.19768555 455.3425293 384.99755859 C454.89613735 383.72714573 454.4485967 382.45713601 454 381.1875 C453.77414215 380.541297 453.5482843 379.89509399 453.31558228 379.22930908 C442.1722531 347.41791935 427.77603196 317.03004386 410.25 288.25 C409.78996582 287.48623047 409.32993164 286.72246094 408.85595703 285.93554688 C395.87680293 264.41010388 380.72104895 244.2182725 364.25 225.25 C363.61578125 224.51523438 362.9815625 223.78046875 362.328125 223.0234375 C360.64725908 221.08812857 358.94984226 219.16865634 357.25 217.25 C356.33093872 216.20368408 356.33093872 216.20368408 355.39331055 215.13623047 C349.58966258 208.59642656 343.52142255 202.36699018 337.3293457 196.19897461 C335.68258596 194.55760204 334.04127905 192.91091181 332.40039062 191.26367188 C326.85679163 185.71620934 321.25075871 180.30643816 315.25 175.25 C314.19357605 174.33774235 313.13756589 173.42500523 312.08203125 172.51171875 C293.88059872 156.99458545 274.53793148 142.91503958 254.25 130.25 C253.6415625 129.86924316 253.033125 129.48848633 252.40625 129.09619141 C191.32434472 91.10418398 122.63448382 68.22257951 51.25 60.25 C50.23631348 60.13140625 49.22262695 60.0128125 48.17822266 59.890625 C-38.98955082 50.05736266 -130.33145734 67.60897898 -208.75 106.25 Z " fill="#006BFE" transform="translate(544.75,-0.25)"/>
<path d="M0 0 C1.35528265 -0.00142804 2.71056514 -0.00302497 4.0658474 -0.00478554 C11.17093703 -0.01399422 18.27600812 -0.01812656 25.38110352 -0.01733398 C31.91904343 -0.01673617 38.45690007 -0.02724119 44.99481899 -0.04307765 C50.67535057 -0.05632806 56.35585556 -0.06151062 62.0364024 -0.06087857 C65.39893589 -0.06062841 68.76133752 -0.06418471 72.12386513 -0.07405663 C94.40664374 -0.13333149 116.99446378 0.12741746 138.94921875 4.35546875 C140.09334229 4.56905029 141.23746582 4.78263184 142.41625977 5.00268555 C203.86707172 16.94240182 262.53097921 49.8160813 302.82421875 98.16796875 C303.24541992 98.67005859 303.66662109 99.17214844 304.10058594 99.68945312 C317.66964201 115.9496581 328.48483696 133.64374804 338.99902344 151.98535156 C340.83272928 155.18280867 342.67480673 158.37529512 344.51953125 161.56640625 C347.66199842 167.00353641 350.79852368 172.44406296 353.93310547 177.88574219 C356.43761728 182.2325866 358.94459808 186.57800356 361.45214844 190.9230957 C362.6995884 193.08529244 363.946334 195.24788993 365.19238281 197.41088867 C368.34027879 202.87367996 371.49919692 208.32955003 374.6796875 213.7734375 C380.80594217 224.28102909 386.81644668 234.82354199 392.44921875 245.60546875 C392.92190186 246.50998779 393.39458496 247.41450684 393.8815918 248.34643555 C402.82421875 265.68293369 402.82421875 265.68293369 402.82421875 270.16796875 C400.9295354 270.48736709 399.03336881 270.79796454 397.13671875 271.10546875 C396.08097656 271.27949219 395.02523437 271.45351563 393.9375 271.6328125 C371.97452802 274.74466216 348.76442345 274.26591702 326.82421875 271.16796875 C325.56617432 270.99056152 325.56617432 270.99056152 324.28271484 270.80957031 C292.57588374 266.07792626 263.08060508 253.16916904 238.82421875 232.16796875 C237.76727864 231.28057875 236.70860782 230.39524707 235.6484375 229.51171875 C230.39795858 225.12611577 225.23788719 220.67251454 220.19921875 216.04296875 C215.8205969 212.02501373 211.31187534 208.23006516 206.68359375 204.50390625 C204.17803606 202.45701623 201.7298524 200.3573177 199.29052734 198.23242188 C170.43619479 173.26488036 136.44814644 156.46514776 98.82421875 150.16796875 C97.87235687 149.99938858 96.920495 149.83080841 95.93978882 149.65711975 C85.7827176 148.00980804 75.83356151 147.85797758 65.56640625 147.8671875 C63.72860622 147.86328651 61.89080707 147.85894904 60.05300903 147.85420227 C56.21890327 147.8467887 52.38488965 147.84699471 48.55078125 147.85229492 C43.69682081 147.8580685 38.84324458 147.84118563 33.98934746 147.81795025 C30.19690843 147.80303715 26.40455805 147.80236498 22.61209488 147.80545998 C20.82557544 147.80495506 19.03904989 147.79987817 17.25255966 147.78964806 C4.51899542 147.7256855 -7.64284052 148.92978858 -20.17578125 151.16796875 C-21.44257265 151.39386641 -21.44257265 151.39386641 -22.73495579 151.62432766 C-60.88403064 158.48647297 -94.25164828 176.58672195 -122.17578125 203.16796875 C-123.31080078 204.20630859 -123.31080078 204.20630859 -124.46875 205.265625 C-158.93608796 237.84950187 -176.92240485 288.46152533 -178.37075806 335.08798218 C-178.47533207 340.20176264 -178.48107895 345.3150259 -178.4765625 350.4296875 C-178.48046867 352.31801952 -178.48480711 354.20635068 -178.48954773 356.09468079 C-178.49693801 360.02335476 -178.49677217 363.95193876 -178.49145508 367.88061523 C-178.48682528 371.85501425 -178.49374575 375.82910719 -178.51196289 379.8034668 C-178.79874201 411.1185054 -178.79874201 411.1185054 -175.17578125 442.16796875 C-174.94608643 443.43680908 -174.7163916 444.70564941 -174.47973633 446.01293945 C-173.873326 449.02936774 -173.18666846 451.99975988 -172.42578125 454.98046875 C-172.16974121 456.00978516 -171.91370117 457.03910156 -171.64990234 458.09960938 C-169.17331394 467.73128411 -166.02309595 477.00164413 -162.17578125 486.16796875 C-161.87978027 486.87824219 -161.5837793 487.58851563 -161.27880859 488.3203125 C-154.35627872 504.62621755 -144.95787655 519.92386162 -133.17578125 533.16796875 C-132.44875 534.00328125 -131.72171875 534.83859375 -130.97265625 535.69921875 C-128.74325104 538.22483864 -126.47197047 540.70299981 -124.17578125 543.16796875 C-123.45261719 543.956875 -122.72945312 544.74578125 -121.984375 545.55859375 C-91.1141197 577.94363315 -42.44044424 598.1179208 1.9303236 600.27012539 C4.03793065 600.31674845 6.14384779 600.33713241 8.25195312 600.3449707 C9.04216354 600.3515419 9.83237396 600.3581131 10.64653015 600.36488342 C13.23701112 600.3844296 15.82743421 600.3962461 18.41796875 600.40625 C19.31627914 600.41032553 20.21458954 600.41440105 21.14012146 600.41860008 C25.9086788 600.43939637 30.67720805 600.45371757 35.44580078 600.46313477 C39.33626262 600.47193252 43.22636005 600.49266704 47.11669922 600.5246582 C120.11121188 601.1117085 171.33505051 576.77717705 224.57421875 527.91796875 C244.92622387 509.33179937 266.75958412 494.38640496 292.82421875 485.16796875 C293.52981934 484.9167627 294.23541992 484.66555664 294.96240234 484.40673828 C316.23242273 477.03360877 339.32071488 474.96675456 361.69921875 474.98046875 C362.94558105 474.98054932 364.19194336 474.98062988 365.47607422 474.98071289 C393.77624585 475.15197778 393.77624585 475.15197778 402.82421875 478.16796875 C401.88275674 483.70562143 399.62431653 488.2636733 397.19921875 493.29296875 C396.718479 494.29344238 396.23773926 495.29391602 395.74243164 496.32470703 C387.49668959 513.22737221 378.068632 529.54756951 368.4609375 545.70703125 C365.13545943 551.31042938 361.88941944 556.95962372 358.63671875 562.60546875 C358.00080811 563.70850342 357.36489746 564.81153809 356.7097168 565.94799805 C353.45190757 571.60088296 350.19864037 577.25635243 346.94921875 582.9140625 C343.25598534 589.34082572 339.5449477 595.75709122 335.82421875 602.16796875 C335.29199707 603.08868164 334.75977539 604.00939453 334.21142578 604.95800781 C321.14901628 627.48683206 305.71212153 647.31058346 287.82421875 666.16796875 C287.04175781 666.99296875 286.25929688 667.81796875 285.453125 668.66796875 C279.94527666 674.32308577 273.99103203 679.25182296 267.82421875 684.16796875 C266.67695683 685.11546036 265.53118789 686.06476189 264.38671875 687.015625 C208.38615561 733.21514935 139.63085137 748.56087952 68.5390625 748.43359375 C65.81498574 748.4340435 63.09091209 748.43689183 60.36683655 748.43939209 C54.70539349 748.44298827 49.04400331 748.43834872 43.38256836 748.42871094 C36.91764747 748.41782963 30.45285287 748.42136751 23.98793501 748.43236375 C18.34880364 748.44155662 12.70970938 748.4426646 7.07057291 748.43748641 C3.74122306 748.43443207 0.41197744 748.4346037 -2.91737556 748.44055939 C-87.40194893 748.55861634 -160.82884531 722.05971951 -221.36328125 662.16796875 C-227.05069919 656.47361963 -232.24477932 650.53492179 -237.17578125 644.16796875 C-238.35527344 642.69650391 -238.35527344 642.69650391 -239.55859375 641.1953125 C-252.18228838 625.33093797 -262.0852279 607.69732834 -272.17578125 590.16796875 C-273.40849007 588.03364384 -274.64156454 585.89953007 -275.875 583.765625 C-279.01566468 578.32951119 -282.15097552 572.89033065 -285.28466797 567.45019531 C-287.78927046 563.10319353 -290.29635172 558.75762478 -292.80395508 554.41235352 C-294.05050605 552.25174104 -295.29643847 550.09077157 -296.54174805 547.92944336 C-299.70382865 542.44280174 -302.87583131 536.96231486 -306.06640625 531.4921875 C-309.80659566 525.07168603 -313.51142953 518.63206167 -317.17578125 512.16796875 C-317.68625 511.26804199 -318.19671875 510.36811523 -318.72265625 509.44091797 C-337.4335345 476.09959157 -348.31893544 439.12745124 -352.17578125 401.16796875 C-352.28792969 400.11738281 -352.40007812 399.06679688 -352.515625 397.984375 C-358.59946399 329.89538247 -337.05136488 269.10235104 -303.03320312 211.33447266 C-299.90631204 206.0037974 -296.82262623 200.64833769 -293.73828125 195.29296875 C-293.1153418 194.21257324 -292.49240234 193.13217773 -291.85058594 192.01904297 C-288.71519284 186.58021127 -285.58412304 181.13892097 -282.45703125 175.6953125 C-278.71070782 169.17799901 -274.95024984 162.66902301 -271.17578125 156.16796875 C-270.84237732 155.59355042 -270.50897339 155.01913208 -270.16546631 154.42730713 C-255.63274685 129.40712937 -240.31487014 106.10176026 -220.17578125 85.16796875 C-219.62776855 84.59804199 -219.07975586 84.02811523 -218.51513672 83.44091797 C-211.12911346 75.8075258 -203.58931732 68.6774514 -195.17578125 62.16796875 C-194.17160156 61.37003906 -193.16742188 60.57210937 -192.1328125 59.75 C-178.64230349 49.09544594 -164.34395403 40.23072845 -149.17578125 32.16796875 C-148.19254883 31.63840576 -148.19254883 31.63840576 -147.18945312 31.09814453 C-101.24264408 6.48714861 -51.31720792 0.01430762 0 0 Z " fill="#006BFE" transform="translate(512.17578125,161.83203125)"/>
<path d="M0 0 C1.22493258 -0.00424107 1.22493258 -0.00424107 2.47461128 -0.00856781 C6.80184364 -0.02348607 11.12904334 -0.03276031 15.45629883 -0.03710938 C19.86654339 -0.0425641 24.2764746 -0.0665497 28.68662167 -0.09508133 C32.12987567 -0.11395061 35.57305806 -0.11892614 39.01635933 -0.12044525 C40.63904076 -0.12342109 42.26172256 -0.13127128 43.88435173 -0.14463043 C61.46587173 -0.27897987 78.31446945 2.04256442 94.84765625 8.203125 C95.49798828 8.44514648 96.14832031 8.68716797 96.81835938 8.93652344 C122.17503705 18.64201041 142.85505556 37.33935908 162.59765625 55.453125 C167.84769636 60.25536757 173.30227767 64.74804872 178.84765625 69.203125 C180.01498527 70.1619546 181.1816172 71.12163332 182.34765625 72.08203125 C235.66747333 115.74566951 304.00742543 130.85136203 371.92675781 124.17456055 C376.56238358 123.67516042 381.19189217 123.13694195 385.81933594 122.56689453 C390.15575205 122.04599321 394.49977299 121.61577418 398.84765625 121.203125 C403.52823016 152.92359012 404.18568478 184.5141376 398.84765625 216.203125 C395.23520075 217.08620565 392.38865711 217.20724792 388.71484375 216.6796875 C387.74289062 216.545625 386.7709375 216.4115625 385.76953125 216.2734375 C384.7640625 216.12648438 383.75859375 215.97953125 382.72265625 215.828125 C369.99168608 214.02373553 357.59466818 212.99492305 344.72265625 213.015625 C344.02479004 213.01622925 343.32692383 213.0168335 342.60791016 213.01745605 C272.47211261 213.18095206 214.76226699 236.23223303 163.30859375 283.0234375 C159.81345732 286.11912977 156.17876309 289.03198015 152.546875 291.96484375 C150.00274665 294.07451893 147.58022989 296.2658078 145.16015625 298.515625 C115.61910703 325.22333459 81.93293383 338.58420701 42.19921875 338.46875 C40.53119857 338.47010238 38.86317877 338.47204764 37.19515991 338.47454834 C33.72088826 338.47747433 30.24672039 338.47328534 26.77246094 338.46386719 C22.36657218 338.45249217 17.96092776 338.45903603 13.55504799 338.47101212 C10.11620313 338.47831492 6.67741409 338.47590434 3.23856735 338.47075653 C1.61621444 338.46944224 -0.00614389 338.47098773 -1.62849045 338.47571564 C-40.83220271 338.56491927 -76.29002424 326.00041436 -104.40234375 298.390625 C-110.92411348 291.82732023 -116.30337755 285.11036033 -121.15234375 277.203125 C-121.77367187 276.23117187 -122.395 275.25921875 -123.03515625 274.2578125 C-127.74758577 266.60776458 -131.09645129 258.61351125 -134.15234375 250.203125 C-134.52230469 249.213125 -134.89226562 248.223125 -135.2734375 247.203125 C-143.5482151 222.99054618 -142.74863366 197.67099647 -142.60186768 172.44934082 C-142.58583557 168.53767013 -142.59582514 164.62624291 -142.6059866 160.71456623 C-142.61302703 156.87661137 -142.60506152 153.03879437 -142.59272957 149.20085716 C-142.58829998 147.40122193 -142.58780125 145.60157145 -142.59179497 143.8019352 C-142.61121584 127.37081715 -141.5118218 110.47752043 -136.33984375 94.765625 C-136.07977539 93.94545898 -135.81970703 93.12529297 -135.55175781 92.28027344 C-124.69483006 58.81893397 -101.78579067 31.08083878 -70.40234375 14.953125 C-47.77384106 3.8664511 -24.98720127 0.05895027 0 0 Z " fill="#006BFE" transform="translate(533.15234375,366.796875)"/>
<path d="M0 0 C0.78860413 -0.0065712 1.57720825 -0.0131424 2.38970947 -0.01991272 C4.97538393 -0.03946081 7.56100036 -0.05127672 10.14672852 -0.0612793 C11.04379076 -0.06535482 11.940853 -0.06943035 12.86509895 -0.07362938 C17.62832525 -0.09442792 22.39152342 -0.10874737 27.15478516 -0.11816406 C31.03841162 -0.12695639 34.92167238 -0.14767744 38.80517578 -0.1796875 C111.93899976 -0.7692068 162.98743253 23.46543551 216.33813477 72.42700195 C236.69013989 91.01317134 258.52350014 105.95856575 284.58813477 115.17700195 C285.29373535 115.42820801 285.99933594 115.67941406 286.72631836 115.93823242 C307.93229864 123.2891628 330.96227841 125.37677975 353.27563477 125.36450195 C355.13031372 125.36546875 355.13031372 125.36546875 357.02246094 125.36645508 C369.59747159 125.296083 382.07510942 124.36947376 394.58813477 123.17700195 C398.1661437 129.7659693 400.43564568 136.44493699 402.58813477 143.61450195 C403.10923828 145.33189575 403.10923828 145.33189575 403.64086914 147.08398438 C410.94099218 171.45824603 410.94099218 171.45824603 410.58813477 179.17700195 C349.63680357 194.04318029 275.90356877 183.33496696 222.5222168 150.92260742 C205.76609705 140.41564579 190.6510857 127.6355431 176.04907227 114.35668945 C172.55393584 111.26099719 168.9192416 108.3481468 165.28735352 105.4152832 C162.74322516 103.30560803 160.3207084 101.11431916 157.90063477 98.86450195 C128.35958554 72.15679236 94.67341235 58.79591994 54.93969727 58.91137695 C53.27167708 58.91002457 51.60365729 58.90807931 49.93563843 58.90557861 C46.46136678 58.90265262 42.9871989 58.90684161 39.51293945 58.91625977 C35.1070507 58.92763478 30.70140627 58.92109092 26.2955265 58.90911484 C22.85668165 58.90181203 19.41789261 58.90422261 15.97904587 58.90937042 C14.35669296 58.91068471 12.73433462 58.90913922 11.11198807 58.90441132 C-27.70365786 58.81609069 -63.26206761 71.12456912 -91.16186523 98.48950195 C-97.50356763 104.87456916 -102.6724238 111.50316093 -107.41186523 119.17700195 C-108.03448242 120.15024414 -108.65709961 121.12348633 -109.29858398 122.1262207 C-124.58823864 146.96776374 -128.90912973 175.72420204 -128.84545898 204.4152832 C-128.85004468 206.27833745 -128.85535708 208.14139003 -128.86134338 210.00444031 C-128.8701792 213.87412466 -128.86796252 217.74360162 -128.85791016 221.61328125 C-128.84872171 225.52560823 -128.85565228 229.43733833 -128.87841797 233.34960938 C-129.14143862 278.79975102 -124.23403359 320.89855992 -91.41186523 355.17700195 C-90.67709961 355.9865332 -89.94233398 356.79606445 -89.18530273 357.63012695 C-67.86571152 380.3044748 -35.04274857 393.06241534 -4.41186523 395.17700195 C1.30540236 395.34216725 7.0211073 395.36663371 12.74047852 395.38012695 C13.9654111 395.38436802 13.9654111 395.38436802 15.2150898 395.38869476 C19.54232216 395.40361302 23.86952186 395.41288726 28.19677734 395.41723633 C32.60702191 395.42269105 37.01695311 395.44667666 41.42710018 395.47520828 C44.87035418 395.49407756 48.31353657 395.49905309 51.75683784 395.5005722 C53.37951928 395.50354804 55.00220108 395.51139824 56.62483025 395.52475739 C74.20635024 395.65910682 91.05494796 393.33756253 107.58813477 387.17700195 C108.2384668 386.93498047 108.88879883 386.69295898 109.55883789 386.44360352 C134.91551557 376.73811654 155.59553408 358.04076788 175.33813477 339.92700195 C180.58817487 335.12475939 186.04275619 330.63207823 191.58813477 326.17700195 C192.75546379 325.21817235 193.92209571 324.25849363 195.08813477 323.2980957 C248.51795782 279.54437346 316.69262607 264.72764266 384.71606445 271.15673828 C393.47174489 272.06518782 402.02798815 273.08916131 410.58813477 275.17700195 C409.96771293 282.70160519 408.37677322 289.75628765 406.46313477 297.05200195 C406.15400146 298.23133301 405.84486816 299.41066406 405.52636719 300.62573242 C403.56360091 307.93982836 401.43911172 315.16610766 398.90063477 322.30200195 C398.62783691 323.09461426 398.35503906 323.88722656 398.07397461 324.70385742 C397.26391602 326.87231445 397.26391602 326.87231445 395.58813477 330.17700195 C392.6896836 331.32996205 390.24491309 331.19642379 387.18579102 330.8371582 C386.31035645 330.74337891 385.43492187 330.64959961 384.53295898 330.55297852 C383.58179199 330.44953125 382.630625 330.34608398 381.65063477 330.23950195 C360.71582073 328.21431184 339.43586267 328.23331097 318.58813477 331.17700195 C317.33009033 331.35440918 317.33009033 331.35440918 316.04663086 331.53540039 C284.33979976 336.26704445 254.8445211 349.17580167 230.58813477 370.17700195 C229.53119465 371.06439195 228.47252384 371.94972364 227.41235352 372.83325195 C222.1618746 377.21885493 217.00180321 381.67245616 211.96313477 386.30200195 C207.58451292 390.31995697 203.07579135 394.11490555 198.44750977 397.84106445 C195.94195208 399.88795447 193.49376842 401.987653 191.05444336 404.11254883 C172.59063111 420.08921361 151.41016002 433.39557563 128.58813477 442.17700195 C127.42926758 442.62430664 126.27040039 443.07161133 125.07641602 443.5324707 C103.22589478 451.34481328 80.41912445 454.49849448 57.33032227 454.4777832 C55.49252224 454.48168419 53.65472309 454.48602166 51.81692505 454.49076843 C47.98281929 454.498182 44.14880567 454.49797599 40.31469727 454.49267578 C35.46073683 454.4869022 30.6071606 454.50378507 25.75326347 454.52702045 C21.96082444 454.54193355 18.16847407 454.54260572 14.37601089 454.53951073 C12.58949145 454.54001565 10.8029659 454.54509254 9.01647568 454.55532265 C-3.71708857 454.61928521 -15.8789245 453.41518212 -28.41186523 451.17700195 C-29.25639283 451.02640351 -30.10092043 450.87580507 -30.97103977 450.72064304 C-69.10449207 443.86130787 -102.51059685 425.76798978 -130.41186523 399.17700195 C-131.24202148 398.41129883 -132.07217773 397.6455957 -132.92749023 396.85668945 C-159.45007974 371.61745105 -175.20552056 336.89830932 -183.16186523 301.67700195 C-183.46012207 300.38088989 -183.46012207 300.38088989 -183.7644043 299.05859375 C-187.15550182 283.19808745 -187.72694124 267.11091249 -187.71264648 250.95043945 C-187.71655298 249.06450307 -187.72089148 247.17856753 -187.72563171 245.29263306 C-187.73302251 241.36815522 -187.73285606 237.44376745 -187.72753906 233.51928711 C-187.72291202 229.55172375 -187.72981948 225.58446719 -187.74804688 221.61694336 C-188.00047571 166.17155958 -180.80466248 111.34257838 -142.41186523 68.17700195 C-141.69643555 67.35329102 -140.98100586 66.52958008 -140.24389648 65.6809082 C-138.00513667 63.14100548 -135.72197724 60.65212196 -133.41186523 58.17700195 C-132.61522461 57.31461914 -131.81858398 56.45223633 -130.99780273 55.5637207 C-98.36339902 21.4997132 -47.04745475 0.17531133 0 0 Z " fill="#09E8EF" transform="translate(520.411865234375,308.822998046875)"/>
</svg>
