<svg xmlns="http://www.w3.org/2000/svg" version="1.0" width="640.000000pt" height="640.000000pt" viewBox="0 0 640.000000 640.000000" preserveAspectRatio="xMidYMid meet">
<circle cx="320" cy="320" r="310" fill="#24292F"/>
<g transform="translate(0.000000,640.000000) scale(0.100000,-0.100000)" fill="#FFFFFF" stroke="none">
<path d="M2920 6388 c-1001 -84 -1917 -641 -2448 -1488 -447 -713 -583 -1579 -377 -2400 203 -806 733 -1513 1455 -1938 130 -77 370 -191 517 -246 141 -53 199 -58 264 -25 66 33 79 74 79 254 0 83 -3 220 -7 305 l-6 156 -81 -12 c-355 -53 -636 -6 -814 136 -64 51 -131 143 -167 230 -52 126 -156 290 -239 379 -28 29 -79 71 -113 93 -71 45 -133 109 -133 138 0 30 43 52 113 57 190 16 378 -101 534 -332 102 -151 196 -232 338 -291 67 -28 77 -29 220 -29 154 0 214 11 321 56 40 16 40 18 62 105 27 111 79 217 137 282 l45 50 -52 7 c-542 68 -905 246 -1130 553 -174 235 -268 579 -268 976 0 317 93 587 277 804 33 38 44 59 40 75 -3 12 -15 58 -27 102 -18 65 -23 108 -24 230 -1 164 13 254 62 399 31 92 45 101 142 90 188 -20 406 -106 662 -261 l107 -65 113 26 c271 62 469 81 772 73 234 -6 386 -24 599 -72 l118 -26 77 49 c185 118 391 213 550 253 84 21 233 31 247 17 15 -15 66 -185 81 -271 24 -138 15 -364 -19 -476 l-25 -84 62 -78 c119 -150 198 -319 239 -509 38 -174 27 -520 -24 -740 -146 -637 -563 -965 -1357 -1065 l-53 -7 45 -48 c52 -56 107 -159 138 -262 21 -71 22 -92 27 -635 6 -548 7 -562 27 -590 50 -69 138 -80 267 -34 558 198 1075 570 1440 1036 185 236 371 569 471 840 425 1155 142 2425 -734 3295 -666 662 -1602 999 -2550 918z"/>
</g>
</svg>