<?xml version="1.0" encoding="UTF-8"?>
<svg version="1.1" xmlns="http://www.w3.org/2000/svg" width="960" height="960">
<path d="M0 0 C1.36767445 -0.00259126 2.73534816 -0.0056065 4.10302085 -0.0090034 C7.82404253 -0.01698749 11.54504483 -0.01885811 15.26607406 -0.01960087 C19.2942956 -0.0214666 23.32250744 -0.0290214 27.35072327 -0.03573608 C36.14260546 -0.049259 44.93448305 -0.05533475 53.72637391 -0.05974674 C59.22815372 -0.06251962 64.7299318 -0.06675884 70.23171043 -0.07125092 C85.49909384 -0.08343606 100.76647586 -0.09373661 116.03386402 -0.09712601 C117.49669475 -0.09745536 117.49669475 -0.09745536 118.98907761 -0.09779136 C119.96647896 -0.09800964 120.94388032 -0.09822791 121.9508999 -0.09845281 C123.93110836 -0.09889625 125.91131681 -0.09934282 127.89152527 -0.09979248 C129.36486689 -0.10012463 129.36486689 -0.10012463 130.86797299 -0.10046348 C146.76184254 -0.1044064 162.6556661 -0.12184835 178.54951791 -0.145152 C194.91262673 -0.16894771 211.27571256 -0.18133159 227.63883895 -0.18249393 C236.80785392 -0.18340612 245.97680895 -0.18904253 255.14580727 -0.20731354 C262.95736067 -0.22282602 270.76883561 -0.22777008 278.58040152 -0.21957543 C282.55507226 -0.21570783 286.52958556 -0.2164041 290.50423622 -0.23063278 C351.16653877 -0.43491531 406.26726998 16.1164944 450.2306366 59.42315674 C451.08480164 60.27321289 451.08480164 60.27321289 451.95622253 61.14044189 C452.75237976 61.93055664 452.75237976 61.93055664 453.56462097 62.7366333 C487.08979282 96.44250519 507.10006664 143.56009192 509.51042175 190.84942627 C509.57358739 192.07998875 509.57358739 192.07998875 509.6380291 193.33541107 C510.08649611 202.82144906 510.10107873 212.30204005 510.08903503 221.79669189 C510.08971169 223.71942151 510.0906847 225.64215104 510.0919342 227.56488037 C510.09339419 231.5615929 510.09131209 235.55828282 510.08659363 239.55499268 C510.08089742 244.62064668 510.08418565 249.68624765 510.09016609 254.75189972 C510.09381808 258.71240624 510.09261207 262.67290066 510.0900383 266.63340759 C510.08938179 268.49889635 510.09015154 270.36438629 510.09251785 272.22987366 C510.10875789 288.62067479 510.016465 305.11924601 507.33122253 321.32794189 C507.15937439 322.36982666 506.98752625 323.41171143 506.81047058 324.48516846 C497.48142984 377.68191216 466.75646498 425.20285377 422.67106628 456.17169189 C391.61541871 477.59893926 353.99661547 492.33647735 315.85637379 492.27466297 C314.86165081 492.2770152 313.86692783 492.27936743 312.84206173 492.28179094 C309.50630973 492.288452 306.17059694 492.2880236 302.83483887 492.28761292 C300.42006582 492.29091332 298.00529331 492.29463926 295.59052151 492.29875439 C289.64832995 492.30771278 283.7061454 492.31199876 277.76394852 492.31427336 C270.64478218 492.31724103 263.52562567 492.32594163 256.40646451 492.33468764 C239.20246617 492.35550798 221.99846614 492.36599732 204.79445815 492.37481725 C196.65413284 492.37902646 188.51380828 492.38424802 180.37348359 492.38950178 C152.50165501 492.40738824 124.62982621 492.4223845 96.75799274 492.42982197 C95.00903424 492.43029672 93.26007574 492.43077261 91.51111723 492.43124963 C90.21015175 492.43160419 90.21015175 492.43160419 88.88290413 492.43196592 C84.48880518 492.4331671 80.09470624 492.43438256 75.7006073 492.43560791 C74.82859244 492.43584806 73.95657758 492.43608821 73.05813803 492.43633564 C44.78038915 492.44422994 16.5026822 492.46766639 -11.77504837 492.50016385 C-41.68092642 492.53446962 -71.58677994 492.55417369 -101.49267799 492.55746621 C-104.77619383 492.55788374 -108.05970965 492.5583633 -111.34322548 492.55888939 C-112.555942 492.55907418 -112.555942 492.55907418 -113.79315784 492.5592627 C-126.79667863 492.56159352 -139.80015065 492.57724658 -152.80365407 492.59773124 C-165.87573888 492.61799716 -178.94776518 492.62346285 -192.01986279 492.6139606 C-199.78238307 492.60874902 -207.54470838 492.61460693 -215.30720056 492.63649527 C-221.10841163 492.65161493 -226.90945216 492.6457482 -232.71065924 492.63182475 C-235.05384246 492.62944302 -237.39704448 492.63380143 -239.74019893 492.6456534 C-259.56073304 492.73968352 -274.88312867 490.37751546 -289.94612122 476.32403564 C-303.96669071 461.72906665 -306.38204401 443.2742052 -306.28669739 423.79888916 C-306.28859573 422.54631821 -306.29049408 421.29374725 -306.29244995 420.0032196 C-306.29549072 416.60995717 -306.28971711 413.21694504 -306.27949691 409.82371259 C-306.27059228 406.23372933 -306.27247636 402.64374877 -306.27285767 399.05375671 C-306.27192518 393.01955981 -306.26330471 386.9854136 -306.24958801 380.95123291 C-306.23393146 374.03950835 -306.22858803 367.1278394 -306.22932357 360.21609837 C-306.23000735 352.77895153 -306.22301426 345.34182528 -306.21387696 337.90468478 C-306.21177665 335.79984946 -306.21104006 333.69501761 -306.21063805 331.59018135 C-306.19444215 287.8936536 -306.19444215 287.8936536 -303.35627747 266.82794189 C-303.1811261 265.52091309 -303.00597473 264.21388428 -302.82551575 262.86724854 C-294.74334225 204.58417804 -269.02025453 147.74077199 -229.07112122 104.35137939 C-227.28234406 102.40061279 -225.56534628 100.41063795 -223.85627747 98.39044189 C-215.89637601 89.28549662 -207.21642097 80.74407731 -197.71565247 73.26153564 C-195.92132531 71.83709172 -194.16047006 70.36953139 -192.43440247 68.86309814 C-140.73187344 23.80595068 -67.98202594 -0.0474488 0 0 Z " fill="#0057CC" transform="translate(378.0437774658203,467.85955810546875)"/>
<path d="M0 0 C0.86757935 0.00304138 1.73515869 0.00608276 2.62902832 0.00921631 C45.69171096 0.23145365 89.63899746 14.70118008 122.3125 43.4375 C123.50166016 44.46230469 123.50166016 44.46230469 124.71484375 45.5078125 C162.31017431 78.53320823 186.84654379 123.15455848 191.3125 173.4375 C191.67118273 179.22516416 191.70350903 185.01552949 191.6875 190.8125 C191.68662384 191.59508179 191.68574768 192.37766357 191.68484497 193.18395996 C191.49062226 246.14426016 169.57181137 293.70917326 132.30493164 330.74755859 C103.26281054 358.8650453 65.09275994 375.78742253 25.3125 381.4375 C24.34147339 381.58106934 24.34147339 381.58106934 23.35083008 381.72753906 C15.97191501 382.69169656 8.55590617 382.68109807 1.125 382.6875 C0.41896637 382.68817474 -0.28706726 382.68884949 -1.01449585 382.68954468 C-51.98880709 382.61255616 -98.01615253 362.40200055 -134.6875 327.4375 C-135.46738281 326.71046875 -136.24726563 325.9834375 -137.05078125 325.234375 C-169.15463036 294.44205081 -189.73265944 247.3364377 -190.95036316 203.03721619 C-191.01482131 199.29519358 -191.0180651 195.55494564 -191 191.8125 C-190.99817719 191.02513458 -190.99635437 190.23776917 -190.99447632 189.42654419 C-190.94578698 176.89847721 -190.34990028 164.71965564 -187.6875 152.4375 C-187.52121094 151.65777832 -187.35492188 150.87805664 -187.18359375 150.07470703 C-176.35238145 101.12364476 -145.9959553 57.14440155 -103.84765625 29.91796875 C-100.19557991 27.63172509 -96.46905509 25.50133176 -92.6875 23.4375 C-92.06053223 23.09380371 -91.43356445 22.75010742 -90.78759766 22.39599609 C-77.26218042 15.08245534 -63.01546612 9.7170918 -48.1875 5.6875 C-47.51420654 5.50098877 -46.84091309 5.31447754 -46.1472168 5.12231445 C-30.92781647 1.20815231 -15.66514715 -0.11753584 0 0 Z " fill="#0056CC" transform="translate(479.6875,-0.4375)"/>
<path d="M0 0 C20.57727046 -0.07045813 41.15452069 -0.12316677 61.73188782 -0.15543652 C71.28891054 -0.17082621 80.84585779 -0.19176223 90.40283203 -0.22631836 C98.74441205 -0.25646517 107.08593735 -0.27563217 115.42757034 -0.28226548 C119.83376096 -0.28613551 124.23979519 -0.29505997 128.64593506 -0.31719017 C190.79128449 -0.61679277 246.98158987 14.66645375 292.27441406 59.28271484 C293.1285791 60.132771 293.1285791 60.132771 294 61 C294.79615723 61.79011475 294.79615723 61.79011475 295.60839844 62.59619141 C329.13357029 96.3020633 349.14384411 143.41965003 351.55419922 190.70898438 C351.59630964 191.52935936 351.63842007 192.34973434 351.68180656 193.19496918 C352.13027357 202.68100716 352.14485619 212.16159816 352.1328125 221.65625 C352.13348916 223.57897962 352.13446216 225.50170915 352.13571167 227.42443848 C352.13717165 231.421151 352.13508955 235.41784092 352.13037109 239.41455078 C352.12467489 244.48020478 352.12796312 249.54580576 352.13394356 254.61145782 C352.13759555 258.57196435 352.13638954 262.53245876 352.13381577 266.4929657 C352.13315925 268.35845445 352.133929 270.22394439 352.13629532 272.08943176 C352.15253536 288.4802329 352.06024247 304.97880412 349.375 321.1875 C349.20315186 322.22938477 349.03130371 323.27126953 348.85424805 324.34472656 C339.5252073 377.54147027 308.80024244 425.06241187 264.71484375 456.03125 C237.77233457 474.62058411 208.29790916 485.94836241 176 491 C174.93548111 491.17093674 173.87096222 491.34187347 172.77418518 491.51799011 C166.22732792 492.32174455 159.63152353 492.13083248 153.046875 492.11352539 C151.53832501 492.11324297 150.02977488 492.11340233 148.52122498 492.1139679 C144.44537025 492.11425371 140.36954521 492.10839194 136.29369736 492.10139394 C132.02693585 492.09512439 127.7601736 492.09455376 123.4934082 492.09336853 C115.42236915 492.09026581 107.3513437 492.08206674 99.28031063 492.07201904 C90.08804069 492.06082496 80.89577009 492.05533916 71.70349503 492.05032361 C52.80232231 492.03988321 33.90116225 492.02230434 15 492 C15 491.67 15 491.34 15 491 C15.86612915 490.89510254 15.86612915 490.89510254 16.74975586 490.78808594 C64.06139254 484.95905989 106.43929605 467.42911201 141 434 C141.4945166 433.53126465 141.9890332 433.0625293 142.49853516 432.57958984 C165.73630541 410.53541292 181.42497857 383.01864038 192 353 C192.25265625 352.30583984 192.5053125 351.61167969 192.765625 350.89648438 C199.87004673 331.26065208 202.13859207 309.88426011 202.16113281 289.10717773 C202.16609772 287.98502365 202.17106262 286.86286957 202.17617798 285.70671082 C202.19065838 282.03233198 202.19757811 278.35799631 202.203125 274.68359375 C202.20595238 273.41647112 202.20877975 272.14934849 202.21169281 270.8438282 C202.22509695 264.8247664 202.23501104 258.80572695 202.2388947 252.78665298 C202.24336364 245.90392504 202.26087638 239.02139683 202.2898953 232.13872951 C202.31435254 226.12343437 202.32185024 220.10823173 202.32357025 214.09288216 C202.32656891 211.56031266 202.33450129 209.02774342 202.34775543 206.49520683 C202.41800048 192.0410083 201.95361856 178.1775302 199 164 C198.84110542 163.23677366 198.68221085 162.47354733 198.51850128 161.68719292 C190.53362851 123.93466307 172.00659258 90.25389983 145.38134766 62.44433594 C144.15491961 61.16198382 142.94170513 59.86702339 141.73046875 58.5703125 C113.33827736 28.96658047 72.89754617 10.97509548 33 4 C32.05898438 3.80664062 31.11796875 3.61328125 30.1484375 3.4140625 C20.21321717 1.48299151 10.08980335 1.34880433 0 1 C0 0.67 0 0.34 0 0 Z " fill="#568BFE" transform="translate(536,468)"/>
<path d="M0 0 C1.97005257 0.00212242 1.97005257 0.00212242 3.97990417 0.00428772 C7.42389938 0.00805435 10.86785049 0.01783247 14.31182861 0.0289917 C17.84524947 0.03933382 21.37867765 0.04381239 24.91210938 0.04882812 C31.80991362 0.05946179 38.70768905 0.07646514 45.60546875 0.09765625 C45.60546875 0.42765625 45.60546875 0.75765625 45.60546875 1.09765625 C45.03965088 1.10176514 44.47383301 1.10587402 43.89086914 1.11010742 C27.97073716 1.30940802 13.09780663 3.51773101 -2.39453125 7.09765625 C-3.73817038 7.38723365 -5.08190447 7.67637124 -6.42578125 7.96484375 C-55.96875642 19.68108788 -99.29994208 53.66443594 -126.39453125 96.09765625 C-129.60973483 101.31616922 -132.56508097 106.66154705 -135.39453125 112.09765625 C-135.74112793 112.76345703 -136.08772461 113.42925781 -136.44482422 114.11523438 C-152.15249427 144.77802289 -156.70129042 176.50131164 -156.68505859 210.56494141 C-156.69105426 213.09480485 -156.69786216 215.62466648 -156.70541382 218.15452576 C-156.72115171 224.27270489 -156.72751709 230.39082741 -156.72863857 236.50902487 C-156.72959464 241.48656586 -156.7337325 246.46409431 -156.74003983 251.44163132 C-156.75760924 265.59763407 -156.76688448 279.75360674 -156.76537888 293.90962048 C-156.76525901 295.0497392 -156.76525901 295.0497392 -156.76513672 296.21289062 C-156.76501408 297.35442219 -156.76501408 297.35442219 -156.76488896 298.519015 C-156.7640754 310.86215189 -156.78324189 323.20516697 -156.81141345 335.54826863 C-156.84020578 348.26491745 -156.85395053 360.98150693 -156.8522259 373.69818914 C-156.8515646 380.82070225 -156.85694338 387.94308731 -156.878582 395.06557083 C-156.89879836 401.76182714 -156.89805583 408.45776914 -156.88354874 415.15405464 C-156.88146607 417.6020847 -156.88612889 420.05013187 -156.89826965 422.49813271 C-156.99801404 444.01347433 -155.06761707 460.54101842 -139.734375 476.84375 C-131.46920671 484.80535618 -120.73499229 489.51645254 -109.39453125 491.09765625 C-109.39453125 491.42765625 -109.39453125 491.75765625 -109.39453125 492.09765625 C-128.85792274 492.19131592 -148.32126815 492.26174109 -167.78483868 492.30490494 C-176.82318873 492.32548407 -185.86139833 492.35351518 -194.8996582 492.39941406 C-202.78224135 492.43942483 -210.66472271 492.46512281 -218.54740459 492.47401023 C-222.71688338 492.47920101 -226.88607113 492.49130285 -231.05545616 492.52057648 C-234.98958233 492.54797138 -238.92330093 492.55605336 -242.85751343 492.55008698 C-244.2920892 492.55117656 -245.72668033 492.55898611 -247.16117287 492.57447815 C-264.15451291 492.74881084 -277.83112394 487.9115539 -290.296875 476.28125 C-304.3174445 461.68628101 -306.73279779 443.23141955 -306.63745117 423.75610352 C-306.63934952 422.50353256 -306.64124786 421.25096161 -306.64320374 419.96043396 C-306.6462445 416.56717152 -306.64047089 413.17415939 -306.63025069 409.78092694 C-306.62134606 406.19094368 -306.62323014 402.60096313 -306.62361145 399.01097107 C-306.62267896 392.97677417 -306.61405849 386.94262796 -306.6003418 380.90844727 C-306.58468524 373.99672271 -306.57934182 367.08505375 -306.58007735 360.17331272 C-306.58076114 352.73616589 -306.57376805 345.29903964 -306.56463075 337.86189914 C-306.56253044 335.75706382 -306.56179384 333.65223197 -306.56139183 331.54739571 C-306.54519593 287.85086796 -306.54519593 287.85086796 -303.70703125 266.78515625 C-303.53187988 265.47812744 -303.35672852 264.17109863 -303.17626953 262.82446289 C-295.09409603 204.54139239 -269.37100831 147.69798635 -229.421875 104.30859375 C-227.63309785 102.35782714 -225.91610006 100.3678523 -224.20703125 98.34765625 C-216.2471298 89.24271097 -207.56717475 80.70129167 -198.06640625 73.21875 C-196.27207909 71.79430607 -194.51122384 70.32674574 -192.78515625 68.8203125 C-141.04421508 23.72969004 -68.05823907 -0.28206819 0 0 Z " fill="#85A8FE" transform="translate(378.39453125,467.90234375)"/>
</svg>
