<?xml version="1.0" encoding="UTF-8"?>
<svg version="1.1" xmlns="http://www.w3.org/2000/svg" width="960" height="911">
<path d="M0 0 C1.26600037 -0.0061734 2.53200073 -0.0123468 3.83636475 -0.01870728 C27.70635923 -0.09359004 51.46480375 1.55782999 75 5.6875 C76.82615845 6.00219238 76.82615845 6.00219238 78.68920898 6.32324219 C156.36120212 20.13115375 229.52729985 53.70192954 290 104.4375 C294.16895664 102.80654 296.92364741 99.75252016 299.98681641 96.61425781 C300.87068024 95.72119431 300.87068024 95.72119431 301.7723999 94.81008911 C303.05023734 93.51795908 304.32582468 92.22360083 305.59941483 90.92728424 C307.62172968 88.8701102 309.65112157 86.8201709 311.68270874 84.77215576 C317.45770777 78.94833951 323.22161428 73.11364166 328.97607422 67.26953125 C332.499293 63.69243653 336.03244439 60.12539835 339.57169724 56.56417084 C340.91261525 55.21091254 342.24973713 53.85388093 343.58281326 52.49289703 C354.78019732 41.06335827 366.49412324 30.61701433 383.38037109 30.14477539 C399.87963344 29.98616629 411.43569973 35.6724069 423.17988586 47.16636658 C423.87164413 47.85791336 424.5634024 48.54946014 425.27612305 49.26196289 C426.41724548 50.38556213 426.41724548 50.38556213 427.5814209 51.53186035 C430.06619812 53.98334761 432.53968047 56.44582805 435.01171875 58.91015625 C436.75171651 60.63795327 438.49185671 62.36560685 440.23213196 64.09312439 C443.86768164 67.70627625 447.49679222 71.32576266 451.12231445 74.94897461 C455.74519731 79.56657533 460.39068121 84.16069428 465.04223919 88.74938297 C468.64123008 92.30731069 472.22411672 95.8811332 475.80286598 99.45940971 C477.50781721 101.15901206 479.21844982 102.8529366 480.93506432 104.54075813 C492.9949521 116.41505661 503.9102202 127.5261013 504.29248047 145.3425293 C504.40646905 160.47381814 500.91525665 171.47295773 490.19667053 182.55448914 C488.76134232 183.97737497 487.31781386 185.39202277 485.86743164 186.79956055 C485.07490997 187.58127625 484.28238831 188.36299194 483.46585083 189.168396 C481.75852593 190.85106437 480.04786519 192.53035355 478.33418465 194.20654869 C475.62433639 196.85928366 472.92595708 199.52319951 470.23057556 202.19062805 C462.5708869 209.76805406 454.89586502 217.32969373 447.2019043 224.87231445 C442.48513603 229.49657006 437.78685081 234.13911891 433.09823418 238.79194069 C431.30928797 240.56038923 429.51379046 242.32223551 427.71174812 244.07733727 C425.20068223 246.52373497 422.71176747 248.99075394 420.22680664 251.46362305 C419.47522781 252.18532181 418.72364899 252.90702057 417.94929504 253.65058899 C413.9028288 257.50795365 413.9028288 257.50795365 412.99377441 262.78910828 C413.32582886 263.66307755 413.6578833 264.53704681 414 265.4375 C414.2880249 266.2123877 414.5760498 266.98727539 414.87280273 267.78564453 C415.22286377 268.53958496 415.5729248 269.29352539 415.93359375 270.0703125 C416.33006104 270.94357178 416.72652832 271.81683105 417.13500977 272.71655273 C417.56483154 273.65571533 417.99465332 274.59487793 418.4375 275.5625 C436.90476948 317.15139142 447.73593736 361.32448321 453 406.4375 C453.11859375 407.39785156 453.2371875 408.35820312 453.359375 409.34765625 C459.87736225 463.89700192 454.42475217 521.53255004 440 574.4375 C439.70899414 575.50693848 439.41798828 576.57637695 439.11816406 577.67822266 C432.62846463 601.17505504 424.4931213 624.05569619 414.09130859 646.11083984 C413.00546923 648.42583965 411.94759398 650.75196457 410.89453125 653.08203125 C398.15128114 681.00654878 381.62579024 707.09197889 363 731.4375 C362.5143457 732.07623047 362.02869141 732.71496094 361.52832031 733.37304688 C344.6483701 755.50952462 325.50437793 777.64214764 304.171875 795.6015625 C302.38428632 797.11265365 300.63443171 798.65019947 298.890625 800.2109375 C288.72159389 809.25865259 277.98637239 817.41249774 267 825.4375 C266.29149902 825.9619873 265.58299805 826.48647461 264.85302734 827.02685547 C202.27175528 873.31139194 126.04195225 900.77524883 49 909.4375 C48.10845215 909.54191406 47.2169043 909.64632812 46.29833984 909.75390625 C11.93480881 913.60252429 -23.72661449 912.82528006 -58 908.4375 C-59.70905518 908.2206958 -59.70905518 908.2206958 -61.45263672 907.99951172 C-105.46173249 902.21743497 -148.70363456 890.06821839 -189 871.4375 C-190.03576172 870.95877441 -191.07152344 870.48004883 -192.13867188 869.98681641 C-232.14369382 851.37320022 -269.77539532 827.61480936 -302.41796875 797.7734375 C-303.8041688 796.51935637 -305.19621631 795.27094807 -306.62133789 794.0612793 C-312.83256613 788.76492729 -318.5700462 783.01902458 -324.32739258 777.24047852 C-326.058947 775.503564 -327.79578359 773.77206111 -329.53320312 772.04101562 C-335.23405385 766.34424988 -340.82378055 760.62269321 -346 754.4375 C-346.79893677 753.49861938 -346.79893677 753.49861938 -347.61401367 752.54077148 C-373.37977516 722.13356718 -394.14124528 689.00498435 -412 653.4375 C-412.60303955 652.24543945 -412.60303955 652.24543945 -413.21826172 651.02929688 C-440.19042565 597.3585456 -455.98635248 533.07545907 -456.203125 472.9765625 C-456.20882507 471.71073334 -456.21452515 470.44490417 -456.22039795 469.14071655 C-456.22979724 466.4664962 -456.23671803 463.79238647 -456.24023438 461.11816406 C-456.24668958 457.13589984 -456.28084859 453.15401807 -456.3125 449.171875 C-456.38741299 431.04229937 -455.22021262 413.41934037 -453 395.4375 C-452.89757996 394.6019458 -452.79515991 393.7663916 -452.68963623 392.90551758 C-452.15173131 388.62939344 -451.51963254 384.37620239 -450.8125 380.125 C-450.60310791 378.86324951 -450.39371582 377.60149902 -450.17797852 376.30151367 C-444.28150994 341.76368312 -434.1064656 307.52205966 -420 275.4375 C-419.57283691 274.46264648 -419.14567383 273.48779297 -418.70556641 272.48339844 C-398.28002528 226.2650207 -370.96445083 184.31634427 -336.62109375 147.27734375 C-334.19497394 144.64874599 -331.8120955 141.98757156 -329.4375 139.3125 C-323.0558915 132.21296055 -316.36536374 125.46769098 -309.10546875 119.265625 C-306.64272972 117.1272913 -304.26512657 114.90665401 -301.875 112.6875 C-296.06716622 107.39306589 -289.95790521 102.55921957 -283.72900391 97.77246094 C-282.1056453 96.51906856 -280.49567753 95.24838688 -278.88671875 93.9765625 C-225.49083611 52.04688591 -162.16914641 23.80086665 -96 9.4375 C-94.91493164 9.20047363 -93.82986328 8.96344727 -92.71191406 8.71923828 C-84.84470759 7.03957411 -76.95180267 5.65217 -69 4.4375 C-67.07051514 4.14117676 -67.07051514 4.14117676 -65.10205078 3.83886719 C-43.46450609 0.6290229 -21.84692351 0.04493602 0 0 Z M-98 176.4375 C-98.70302246 176.67936035 -99.40604492 176.9212207 -100.13037109 177.17041016 C-138.39517804 190.3847594 -176.28491565 212.61214821 -204.52734375 241.96484375 C-206 243.4375 -206 243.4375 -209 245.875 C-212.01332693 248.44888342 -214.46761416 251.14255181 -217.02734375 254.15234375 C-219.22883968 256.70259151 -221.51802239 259.15816727 -223.8125 261.625 C-238.94344883 278.30317367 -251.53991637 297.52713115 -262 317.4375 C-262.33692871 318.07429687 -262.67385742 318.71109375 -263.02099609 319.3671875 C-284.98123902 361.16824235 -296.21547278 407.31182285 -296.25 454.5 C-296.25067474 455.33453705 -296.25134949 456.1690741 -296.25204468 457.02890015 C-296.16277813 527.00469628 -270.81814468 598.37992449 -223.05859375 650.1953125 C-221.27777629 652.13495049 -219.57208176 654.11268423 -217.875 656.125 C-208.81161138 666.4952028 -198.84000984 675.9585334 -188 684.4375 C-186.85966618 685.37610318 -185.72178876 686.31769595 -184.5859375 687.26171875 C-175.50956835 694.75985263 -166.06038809 701.32872545 -156 707.4375 C-155.20352051 707.9221875 -154.40704102 708.406875 -153.58642578 708.90625 C-115.11610869 732.09259767 -72.67426711 745.91785427 -28 750.4375 C-26.07800781 750.63472656 -26.07800781 750.63472656 -24.1171875 750.8359375 C27.70100086 755.12513877 80.27344504 745.02272601 127 722.4375 C127.90089355 722.0034082 128.80178711 721.56931641 129.72998047 721.12207031 C154.43799261 709.07211641 177.25474182 693.74212534 197.31640625 674.9375 C199.60958458 672.80120577 201.93663261 670.73047234 204.3125 668.6875 C210.75921403 663.07992437 216.45053888 656.92092131 222 650.4375 C222.81339844 649.51324219 223.62679687 648.58898437 224.46484375 647.63671875 C264.32810659 601.976752 288.64512241 542.64873988 294 482.4375 C294.16628906 480.67599609 294.16628906 480.67599609 294.3359375 478.87890625 C296.81282443 448.31947695 294.82024997 416.15977885 287 386.4375 C283.54215001 387.92470346 281.30980172 389.88239279 278.6626339 392.5399437 C277.36411493 393.83618971 277.36411493 393.83618971 276.03936327 395.1586225 C275.08323446 396.12322112 274.12719461 397.08790791 273.17123413 398.05267334 C272.15239229 399.07350707 271.13310374 400.09389512 270.11340678 401.11387467 C267.30966675 403.92090999 264.51219927 406.73412524 261.71566653 409.54833841 C258.69942409 412.58142311 255.67736182 415.60869863 252.65591431 418.63659668 C247.41898681 423.88612987 242.18551562 429.13908832 236.95414352 434.39415741 C229.38155836 442.00068224 221.80156529 449.59979143 214.21934636 457.19671205 C201.90663931 469.53332328 189.59693621 481.87292632 177.29052734 494.21582031 C176.55373999 494.95478791 175.81695264 495.69375551 175.0578384 496.45511606 C164.60911337 506.93504125 154.16338721 517.41795044 143.7188756 527.90207461 C142.9839074 528.63982944 142.24893919 529.37758427 141.49169922 530.13769531 C140.39059425 531.24298087 140.39059425 531.24298087 139.26724474 532.37059543 C127.01823254 544.66571077 114.76147904 556.95307521 102.49837649 569.23413682 C94.93643776 576.80777128 87.38107535 584.38785025 79.83408137 591.97637752 C74.65839751 597.1795228 69.47547742 602.37538591 64.28685276 607.56562635 C61.29518349 610.55870073 58.306871 613.55493539 55.32732391 616.56008148 C52.59570905 619.31504051 49.85487768 622.06047843 47.10665424 624.79886678 C46.11789213 625.78732808 45.13247272 626.77914784 44.15091328 627.77476189 C30.98589596 641.11836407 16.6587994 648.0995403 -2.2578125 648.5078125 C-26.22492769 647.50672906 -41.05013808 632.9935038 -56.98608398 616.953125 C-58.6522893 615.29070963 -60.31935164 613.62915287 -61.98719788 611.96838379 C-66.48355011 607.48591117 -70.96734566 602.99107509 -75.44847751 598.49339294 C-79.67525415 594.25411145 -83.91041387 590.02322558 -88.14512575 585.79187441 C-96.53284011 577.41001904 -104.91054844 569.01823307 -113.28295898 560.62109375 C-121.38998027 552.49013059 -129.50539747 544.36766399 -137.62963867 536.25390625 C-146.50185778 527.39311547 -155.36928424 518.52757839 -164.22858101 509.65386581 C-168.90941989 504.96547625 -173.59206674 500.27892694 -178.27966118 495.59729004 C-182.68365986 491.19807464 -187.08011182 486.79145117 -191.47092247 482.3790741 C-193.07998106 480.76446712 -194.69156914 479.15237626 -196.30590439 477.54304504 C-198.51499957 475.33993844 -200.71458598 473.12774197 -202.91209412 470.91308594 C-203.54721072 470.28397938 -204.18232733 469.65487282 -204.83668989 469.00670242 C-215.10381641 458.59420935 -220.33934227 447.55796875 -220.5 432.875 C-220.23327342 408.53619927 -200.96509411 393.24726275 -184.96875 377.203125 C-183.99499672 376.22513065 -183.99499672 376.22513065 -183.00157166 375.22737885 C-179.57451362 371.78547487 -176.14470507 368.34634166 -172.71240234 364.90966797 C-169.19923231 361.39099412 -165.69546156 357.86311267 -162.19374847 354.33304214 C-159.46711163 351.58767218 -156.73368314 348.84913945 -153.99842834 346.11235809 C-152.70433546 344.8152689 -151.41270654 343.51571595 -150.12376404 342.21350861 C-137.05459765 329.01933206 -124.47018179 317.27699205 -105 317.125 C-86.26607512 317.125 -75.11769326 326.01993323 -62.35410595 338.73497009 C-60.17517875 340.92266684 -58.0035028 343.11740482 -55.83203125 345.3125 C-54.30141606 346.84872127 -52.77012913 348.3842735 -51.23820496 349.91918945 C-47.23840079 353.93036268 -43.24769465 357.9504667 -39.25891113 361.97259521 C-35.17488211 366.08749746 -31.08218117 370.19375522 -26.99023438 374.30078125 C-18.98505101 382.33798844 -10.98946678 390.3846715 -3 398.4375 C-0.08579235 397.11965894 1.98484634 395.701963 4.24084854 393.44274712 C4.86189036 392.8256874 5.48293217 392.20862768 6.12279344 391.57286918 C7.13252674 390.55439736 7.13252674 390.55439736 8.16265869 389.51535034 C8.88478161 388.79493628 9.60690452 388.07452221 10.35090995 387.33227742 C12.77550541 384.91098282 15.19287172 382.48259675 17.61035156 380.05419922 C19.34448016 378.31950664 21.07904895 376.58525402 22.81402588 374.85140991 C26.5514677 371.1144239 30.28581901 367.37439044 34.01740265 363.63155746 C39.41264844 358.22005762 44.81340839 352.81408881 50.21553013 347.409454 C58.97996055 338.64064633 67.73991534 329.86738162 76.49707031 321.09130859 C85.00384135 312.56617954 93.51271043 304.04315357 102.02441406 295.52294922 C102.54907439 294.99776344 103.07373472 294.47257767 103.61429384 293.93147717 C106.24637343 291.29678752 108.87849436 288.66213917 111.51063585 286.02751136 C133.34683849 264.17057529 155.17570876 242.30632999 177 220.4375 C174.53587395 217.93745386 172.18909444 215.72683868 169.26953125 213.7734375 C168.55837158 213.29640381 167.84721191 212.81937012 167.11450195 212.32788086 C166.35484131 211.82780518 165.59518066 211.32772949 164.8125 210.8125 C164.01223389 210.28470947 163.21196777 209.75691895 162.38745117 209.21313477 C85.56678422 158.95429244 -11.08863449 145.75971774 -98 176.4375 Z " fill="#2584FC" transform="translate(456,-0.4375)"/>
<path d="M0 0 C2.65162026 1.23868438 4.47323869 2.98976704 6.60291004 4.99057293 C9.49405554 7.68586664 12.39910663 10.33742949 15.40369129 12.90463543 C20.70698268 17.52926521 25.67054921 22.49716906 30.64319324 27.4705534 C32.27866886 29.10384741 33.92198712 30.72895763 35.56580067 32.35385418 C41.33035614 38.08787256 46.72066009 43.93007955 51.78772449 50.30404949 C53.77302394 52.76648734 55.83771907 55.11676777 57.96228504 57.45932293 C61.95047783 61.90116771 65.55259081 66.56988609 69.10291004 71.36557293 C69.75130848 72.23867107 70.39970692 73.11176922 71.06775379 74.01132488 C73.00226291 76.62495502 74.92815798 79.24475312 76.85291004 81.86557293 C77.38464832 82.58277508 77.9163866 83.29997723 78.46423817 84.03891277 C90.77861466 100.69222049 101.24539774 118.57280191 110.90204334 136.87613201 C111.83724353 138.64838408 112.78128492 140.41596166 113.72546864 142.18344402 C114.2831493 143.26061687 114.84082996 144.33778973 115.41541004 145.44760418 C115.9116991 146.39869061 116.40798817 147.34977703 116.91931629 148.32968426 C118.00196865 151.2704557 117.97636738 151.99690907 116.85291004 154.86557293 C114.92383385 157.1609993 114.92383385 157.1609993 112.34230518 159.73021221 C111.86916982 160.20520529 111.39603445 160.68019836 110.90856165 161.16958517 C109.32030483 162.76044306 107.72156718 164.34033089 106.12268543 165.92050457 C104.98228932 167.05841755 103.84256022 168.19699934 102.7034502 169.33619976 C99.60674136 172.42949416 96.50094343 175.51351795 93.39360452 178.5961287 C90.14575455 181.82151705 86.90677602 185.05578741 83.6669817 188.28926373 C77.5269584 194.41479144 71.3797549 200.53305718 65.22959369 206.64840454 C54.21347836 217.60262428 43.20949053 228.56902042 32.2082395 239.53816599 C28.34561549 243.38894483 24.47983783 247.23652219 20.61141503 251.08147538 C18.20727754 253.47179859 15.80511682 255.86410134 13.40339947 258.25685596 C12.28763057 259.36755011 11.17098543 260.47736479 10.05341053 261.58624172 C8.53014083 263.09784449 7.00996415 264.61249213 5.49049854 266.12791729 C4.63821706 266.97538053 3.78593557 267.82284376 2.90782738 268.6959877 C0.71594382 270.88746518 0.71594382 270.88746518 -1.14708996 273.86557293 C-1.80708996 273.86557293 -2.46708996 273.86557293 -3.14708996 273.86557293 C-3.14708996 274.52557293 -3.14708996 275.18557293 -3.14708996 275.86557293 C-4.13708996 275.86557293 -5.12708996 275.86557293 -6.14708996 275.86557293 C-6.30677258 275.26946209 -6.46645519 274.67335125 -6.63097668 274.05917645 C-20.35423925 223.47571212 -45.83911979 178.60299074 -82.14708996 140.86557293 C-82.64595715 140.34479168 -83.14482433 139.82401043 -83.65880871 139.28744793 C-92.74839493 129.84736353 -102.56088002 121.60048277 -113.14708996 113.86557293 C-112.60069701 109.86188038 -110.67768704 108.01472911 -107.87772655 105.20180035 C-106.95657558 104.26929958 -106.03542461 103.33679882 -105.08635998 102.37604046 C-104.05752651 101.34985031 -103.02852928 100.32382431 -101.99938488 99.29794598 C-100.92138707 98.21260924 -99.84401461 97.12665108 -98.7672224 96.04011822 C-95.8404488 93.09110619 -92.90407968 90.15182982 -89.96522212 87.21486545 C-87.51463827 84.76440114 -85.06840774 82.3096134 -82.62205774 79.85492355 C-76.85319117 74.06681612 -71.07617721 68.28692833 -65.29430676 62.51181316 C-59.32281529 56.54696997 -53.36625321 50.56750582 -47.41664714 44.58083981 C-42.31218258 39.44573281 -37.19815692 34.32028643 -32.07639867 29.20242816 C-29.01553238 26.14363427 -25.9586026 23.08114408 -22.91099644 20.00913334 C-20.04678503 17.12274629 -17.17088295 14.2485539 -14.28538609 11.38345051 C-13.22646153 10.32795183 -12.17181933 9.26813744 -11.12174892 8.20382977 C-9.69184051 6.75587475 -8.24506543 5.32463323 -6.79740429 3.8944273 C-5.99121245 3.08752295 -5.18502062 2.28061861 -4.35439873 1.44926262 C-2.14708996 -0.13442707 -2.14708996 -0.13442707 0 0 Z " fill="#0066DA" transform="translate(748.1470899581909,107.13442707061768)"/>
</svg>
