<svg width="40" height="40" viewBox="0 0 40 40" fill="none" xmlns="http://www.w3.org/2000/svg">
<path d="M32.7393 5H27.8623V12.0669H34.9986V6.99268C35.0006 6.99268 34.646 5.19272 32.7393 5Z" fill="#1967D2"/>
<path d="M27.8638 34.9672V34.9846V35L35.0001 27.9331H34.9362L27.8638 34.9672Z" fill="#1967D2"/>
<path d="M34.9994 27.9327V27.8694L34.936 27.9327H34.9994Z" fill="#FBBC05"/>
<path d="M35.0001 12.0671H27.8638V27.8698H35.0001V12.0671Z" fill="#FBBC05"/>
<path d="M34.9362 27.9331H27.8638V34.9672L34.9362 27.9331Z" fill="#EA4335"/>
<path d="M27.8638 27.9327H34.9362L35.0001 27.8694H27.8638V27.9327Z" fill="#EA4335"/>
<path d="M27.8462 34.9846H27.8635V34.9673L27.8462 34.9846Z" fill="#34A853"/>
<path d="M11.9756 27.8694V34.9845H27.8468L27.8642 27.8694H11.9756Z" fill="#34A853"/>
<path d="M27.8635 27.933V27.8694L27.8462 34.9845L27.8635 34.9671V27.933Z" fill="#34A853"/>
<path d="M5 27.8694V32.8164C5.06394 34.4217 6.80007 34.9845 6.80007 34.9845H11.9755V27.8694H5Z" fill="#188038"/>
<path d="M11.9755 12.0669H27.8642V5H7.00158C7.00158 5 5.12788 5.19272 5 7.18347V27.8696H11.9755V12.0669Z" fill="#4285F4"/>
<path d="M17.1733 24.671C16.8098 24.671 16.4593 24.6236 16.1218 24.529C15.7929 24.4343 15.49 24.2922 15.213 24.1029C14.936 23.9049 14.6894 23.6596 14.473 23.3669C14.2653 23.0742 14.1052 22.7342 13.9927 22.3468L15.5895 21.7142C15.702 22.1446 15.8924 22.4717 16.1607 22.6955C16.429 22.9107 16.7665 23.0183 17.1733 23.0183C17.3551 23.0183 17.5282 22.9924 17.6926 22.9408C17.857 22.8805 17.9998 22.7988 18.121 22.6955C18.2422 22.5922 18.3374 22.4717 18.4066 22.3339C18.4845 22.1876 18.5235 22.024 18.5235 21.8433C18.5235 21.4645 18.3807 21.1675 18.0951 20.9523C17.8181 20.7371 17.433 20.6295 16.9396 20.6295H16.1737V19.093H16.8747C17.0478 19.093 17.2166 19.0715 17.381 19.0285C17.5455 18.9854 17.6883 18.9209 17.8094 18.8348C17.9393 18.7401 18.0388 18.6239 18.108 18.4862C18.1859 18.3398 18.2249 18.172 18.2249 17.9826C18.2249 17.6899 18.121 17.4532 17.9133 17.2724C17.7056 17.0831 17.4243 16.9884 17.0695 16.9884C16.6886 16.9884 16.3944 17.0917 16.1867 17.2983C15.9876 17.4962 15.8491 17.7201 15.7712 17.9697L14.2134 17.337C14.2913 17.1218 14.4081 16.9023 14.5639 16.6785C14.7197 16.4461 14.9144 16.2395 15.1481 16.0587C15.3904 15.8693 15.6717 15.7187 15.9919 15.6068C16.3122 15.4863 16.68 15.426 17.0954 15.426C17.5195 15.426 17.9046 15.4863 18.2508 15.6068C18.6057 15.7273 18.9086 15.8952 19.1596 16.1104C19.4106 16.317 19.6053 16.5666 19.7438 16.8593C19.8823 17.1433 19.9515 17.4532 19.9515 17.7889C19.9515 18.0472 19.9169 18.2796 19.8476 18.4862C19.7871 18.6928 19.7048 18.8778 19.601 19.0414C19.4971 19.2049 19.376 19.347 19.2375 19.4675C19.1077 19.5794 18.9735 19.6698 18.835 19.7386V19.8419C19.2505 20.0055 19.5923 20.268 19.8606 20.6295C20.1376 20.9911 20.2761 21.4473 20.2761 21.9982C20.2761 22.3856 20.2025 22.7428 20.0554 23.0699C19.9082 23.3884 19.6962 23.6682 19.4192 23.9092C19.1509 24.1502 18.8264 24.3353 18.4456 24.4644C18.0648 24.6021 17.6407 24.671 17.1733 24.671Z" fill="#4285F4"/>
<path d="M23.3763 24.4644V17.6211L21.8054 18.2796L21.1823 16.8463L23.7917 15.6326H25.0769V24.4644H23.3763Z" fill="#4285F4"/>
</svg>
