<svg width="40" height="40" viewBox="0 0 40 40" fill="none" xmlns="http://www.w3.org/2000/svg">
<mask id="mask0_2704_8961" style="mask-type:luminance" maskUnits="userSpaceOnUse" x="5" y="5" width="30" height="30">
<path d="M34.4381 5H5.8335V35H34.4381V5Z" fill="white"/>
</mask>
<g mask="url(#mask0_2704_8961)">
<path fill-rule="evenodd" clip-rule="evenodd" d="M27.573 11.5413V14.9806H27.5676C30.7476 15.4619 33.288 17.8266 33.9396 20.912C34.5913 23.9974 33.2172 27.1546 30.493 28.8315C27.7688 30.5083 24.2674 30.3521 21.7101 28.4397L18.8508 31.2393C18.9248 31.4665 18.9642 31.7031 18.9676 31.9415C18.9676 33.2983 17.8442 34.3982 16.4586 34.3982C15.0729 34.3982 13.9495 33.2983 13.9495 31.9415C13.9495 30.5847 15.0729 29.4848 16.4586 29.4848C16.702 29.4882 16.9437 29.5268 17.1757 29.5991L20.0661 26.7691C18.2437 24.2306 18.1966 20.8579 19.9474 18.2717L10.4497 11.0321C9.17534 11.7483 7.56181 11.484 6.59488 10.4007C5.62793 9.31742 5.5765 7.71641 6.47201 6.57576C7.36752 5.4351 8.96089 5.07208 10.2787 5.70845C11.5965 6.34483 12.2722 7.80361 11.8931 9.19361L21.5532 16.5601C22.607 15.7303 23.866 15.1879 25.2027 14.9878V11.5413C24.2537 11.1073 23.6453 10.1763 23.6407 9.15072V9.07032C23.6447 7.6086 24.8539 6.42462 26.3468 6.42069H26.429C27.9217 6.42462 29.1309 7.6086 29.135 9.07032V9.15072C29.1304 10.1763 28.522 11.1073 27.573 11.5413ZM22.4363 22.4317C22.4326 24.57 24.1994 26.3067 26.3832 26.3117L26.3923 26.3135C28.5772 26.3135 30.3483 24.5792 30.3483 22.44C30.3494 20.3016 28.5806 18.567 26.3966 18.5647C24.2127 18.5624 22.44 20.2934 22.4363 22.4317Z" fill="#FF4800"/>
</g>
</svg>
