<?xml version="1.0" encoding="UTF-8"?>
<svg version="1.1" xmlns="http://www.w3.org/2000/svg" width="178" height="178">
<path d="M0 0 C2.8203125 -0.29296875 2.8203125 -0.29296875 6.125 -0.1875 C7.76855469 -0.14689453 7.76855469 -0.14689453 9.4453125 -0.10546875 C10.70988281 -0.05326172 10.70988281 -0.05326172 12 0 C9.94716031 5.42671972 7.03984024 10.07657776 4 15 C3.18593727 16.34359211 2.37215362 17.68735334 1.55859375 19.03125 C0.68548108 20.45869147 -0.18821794 21.88577446 -1.0625 23.3125 C-1.67931641 24.33500854 -1.67931641 24.33500854 -2.30859375 25.37817383 C-5.80319817 31.0339518 -9.29779671 36.13660716 -16 38 C-18.26296407 38.28121242 -20.53630662 38.48704889 -22.8125 38.625 C-23.97394531 38.69976562 -25.13539062 38.77453125 -26.33203125 38.8515625 C-27.21246094 38.90054688 -28.09289063 38.94953125 -29 39 C-29 40.65 -29 42.3 -29 44 C-20.24616625 44.50502887 -10.52460113 43.25234655 -3.515625 37.5703125 C1.22361775 32.66006615 4.35005572 26.48431282 7.578125 20.53125 C9.96601684 16.28027771 12.56178921 12.15727341 15.1328125 8.015625 C17.02619332 5.08466374 17.02619332 5.08466374 18.35546875 2.12890625 C20 0 20 0 22.91796875 -0.48828125 C24.53638672 -0.40126953 24.53638672 -0.40126953 26.1875 -0.3125 C27.27417969 -0.26738281 28.36085938 -0.22226563 29.48046875 -0.17578125 C30.72763672 -0.08876953 30.72763672 -0.08876953 32 0 C30.88653397 3.49946467 29.63910312 6.72179377 28 10 C28 10.66 28 11.32 28 12 C30.84484034 11.72843114 30.84484034 11.72843114 34 10 C34.95673781 8.32501555 35.84648355 6.61097565 36.6875 4.875 C39.24113634 0.2624108 39.24113634 0.2624108 42.5078125 -0.8671875 C48.68779479 -1.1598329 53.14884383 0.45754986 58.0234375 4.1953125 C61.27222132 7.16159338 63.63160515 10.29973134 66 14 C66.3727002 14.58136719 66.74540039 15.16273437 67.12939453 15.76171875 C71.62211733 22.79838658 75.97143546 29.91744162 80.23046875 37.09765625 C83.33436513 42.18859446 86.55671437 47.20650614 89.77490234 52.22583008 C95.80580672 61.69506768 98.61794587 68.48947084 97 80 C95.19176525 84.42705748 92.76293647 88.1155764 90 92 C85.83838191 98.15734384 81.78894404 104.38684357 77.75 110.625 C76.04478871 113.24864671 74.33813282 115.87134713 72.63085938 118.49365234 C71.58911004 120.09464017 70.54861811 121.69644735 69.50976562 123.29931641 C68.17922488 125.34940691 66.84086581 127.39415284 65.5 129.4375 C65.11553711 130.03320801 64.73107422 130.62891602 64.33496094 131.24267578 C61.90060996 134.93040869 59.19752089 137.95937946 56 141 C55.525625 141.556875 55.05125 142.11375 54.5625 142.6875 C52.17436258 144.69353543 50.03287269 145.26986398 47 146 C46.29230469 146.17917969 45.58460937 146.35835937 44.85546875 146.54296875 C42.12926525 146.93773416 40.58728215 147.00240251 38 146 C35.80943729 143.00054687 34.2498078 139.99958066 32.703125 136.625 C32.14109375 135.75875 31.5790625 134.8925 31 134 C28.36156552 133.49841187 28.36156552 133.49841187 26 134 C26.54012193 137.88887793 27.64007333 139.92183478 30 143 C30 143.99 30 144.98 30 146 C27.75165504 146.13526139 25.50097486 146.23210804 23.25 146.3125 C21.99703125 146.37050781 20.7440625 146.42851562 19.453125 146.48828125 C16 146 16 146 13.72265625 143.76953125 C13.15417969 142.85558594 12.58570312 141.94164062 12 141 C11.51917969 140.24460938 11.03835937 139.48921875 10.54296875 138.7109375 C10.09566406 137.94007813 9.64835937 137.16921875 9.1875 136.375 C6.4569789 131.74618212 3.63167539 127.19209321 0.71875 122.67578125 C-0.38522379 120.95709478 -1.47035433 119.22607515 -2.53125 117.48046875 C-6.16935497 111.64595466 -9.67545245 107.32526457 -16.421875 105.2578125 C-24.83188452 103.34197175 -24.83188452 103.34197175 -33 105 C-33 105.99 -33 106.98 -33 108 C-32.11957031 108.12117188 -31.23914062 108.24234375 -30.33203125 108.3671875 C-29.17058594 108.53476563 -28.00914063 108.70234375 -26.8125 108.875 C-25.66394531 109.03742188 -24.51539063 109.19984375 -23.33203125 109.3671875 C-15.28371551 110.89570702 -11.80835408 114.57267148 -7 121 C-1.63245805 129.10288717 3.20384036 137.55069074 8 146 C3.50156726 146.66969149 -0.5278411 146.93627654 -5 146 C-8.29597128 142.8186712 -10.04742234 139.105281 -12 135 C-16.30852523 127.23954061 -20.79643861 123.40961861 -29.31591797 120.61791992 C-35.39280636 119.21892006 -41.82642208 119.72711968 -48.02539062 119.91210938 C-55.96360627 119.86899294 -55.96360627 119.86899294 -59.10400391 117.23583984 C-63 112.17938288 -63 112.17938288 -63 109 C-52.605 108.505 -52.605 108.505 -42 108 C-42.66 106.68 -43.32 105.36 -44 104 C-44.66531738 104.01160156 -45.33063477 104.02320312 -46.01611328 104.03515625 C-49.05362122 104.06477499 -52.08755242 104.03293618 -55.125 104 C-56.17171875 104.01933594 -57.2184375 104.03867188 -58.296875 104.05859375 C-65.93021827 103.91365685 -65.93021827 103.91365685 -69.08105469 101.22265625 C-73 96.12641461 -73 96.12641461 -73 93 C-65.05442985 92.9070114 -57.10908991 92.83609001 -49.16310883 92.79275131 C-45.47280045 92.7719429 -41.78286642 92.74375081 -38.09277344 92.69824219 C-34.52657939 92.65454057 -30.96074369 92.63081224 -27.39430237 92.62049103 C-25.38249888 92.60958506 -23.37083804 92.57839809 -21.35925293 92.54681396 C-14.07768626 92.5450408 -9.14685005 92.97641501 -3 97 C1.84843176 101.85577786 5.18387632 107.85748881 8.75 113.6875 C9.33910156 114.63689453 9.92820312 115.58628906 10.53515625 116.56445312 C14.86624765 123.59874295 14.86624765 123.59874295 16 127 C17.65 126.67 19.3 126.34 21 126 C20.43062712 122.31848673 19.46783761 119.71650639 17.5 116.5625 C16.96375 115.70269531 16.4275 114.84289062 15.875 113.95703125 C15.25625 112.98121094 14.6375 112.00539063 14 111 C13.27022162 109.81678332 12.54108557 108.6331703 11.8125 107.44921875 C4.0600324 94.58735604 4.0600324 94.58735604 -9 88 C-13.51042903 87.59420102 -18.0075233 87.50293755 -22.53266335 87.46524429 C-24.80715173 87.44497728 -27.08054135 87.40494338 -29.35466003 87.35958862 C-35.81380441 87.2340492 -42.27324204 87.14226712 -48.7331543 87.06689453 C-52.6980929 87.01927432 -56.66203378 86.9478521 -60.62631798 86.86193466 C-62.13367245 86.83427441 -63.64122995 86.81601765 -65.14881325 86.80734634 C-67.25105838 86.7950161 -69.35073018 86.75266724 -71.45239258 86.70361328 C-72.64737869 86.68823517 -73.84236481 86.67285706 -75.07356262 86.65701294 C-78 86 -78 86 -79.88432312 83.68063354 C-81.34568717 80.16941846 -81.39777227 77.29537841 -81.375 73.5 C-81.38273437 72.2109375 -81.39046875 70.921875 -81.3984375 69.59375 C-80.96791164 65.71057562 -80.4637922 63.99958077 -78 61 C-74.97312927 60.38768005 -74.97312927 60.38768005 -71.20874023 60.40405273 C-70.522108 60.3999942 -69.83547577 60.39593567 -69.1280365 60.39175415 C-67.63680954 60.3862344 -66.14550559 60.39225287 -64.654356 60.40841484 C-62.28586912 60.43383767 -59.91912313 60.42903513 -57.55055237 60.41651917 C-52.51267796 60.39574687 -47.47533902 60.41542474 -42.4375 60.4375 C-36.62116199 60.45866703 -30.80538836 60.46298879 -24.98906136 60.43699837 C-22.67014833 60.43366428 -20.35233758 60.45477634 -18.03355408 60.47740173 C-8.7653684 60.49583374 -0.75153257 59.77962818 6.75 53.8125 C11.92218881 47.34726399 16.11259224 40.27076217 20.375 33.1875 C20.82834717 32.4459668 21.28169434 31.70443359 21.7487793 30.94042969 C22.37973511 29.87743652 22.37973511 29.87743652 23.0234375 28.79296875 C23.40419434 28.1589917 23.78495117 27.52501465 24.17724609 26.87182617 C25.26826031 24.7304655 25.26826031 24.7304655 25 21 C22.66151614 20.91958697 22.66151614 20.91958697 20 22 C17.98139084 24.28568667 16.52166603 26.86622242 15 29.5 C14.34100708 30.59223877 14.34100708 30.59223877 13.66870117 31.70654297 C11.42429108 35.45265075 9.31882589 39.24565891 7.3125 43.125 C4.73367 47.93267593 0.88524856 51.55737572 -4 54 C-7.6533469 54.36787174 -11.33143878 54.43240539 -15 54.5625 C-16.15089111 54.6049585 -17.30178223 54.64741699 -18.48754883 54.69116211 C-36.6498288 55.27386517 -54.83106589 55.08413341 -73 55 C-69.11764706 47.11764706 -69.11764706 47.11764706 -67 45 C-64.85613343 44.84141158 -62.70733162 44.74870702 -60.55859375 44.68359375 C-58.60083008 44.62075195 -58.60083008 44.62075195 -56.60351562 44.55664062 C-55.2148467 44.51682392 -53.82617478 44.47711175 -52.4375 44.4375 C-51.04490817 44.39432011 -49.65232972 44.350706 -48.25976562 44.30664062 C-44.83995199 44.20014124 -41.42006237 44.09813077 -38 44 C-38.495 42.02 -38.495 42.02 -39 40 C-46.92 39.67 -54.84 39.34 -63 39 C-63 38.34 -63 37.68 -63 37 C-62.34 37 -61.68 37 -61 37 C-60.71125 36.236875 -60.4225 35.47375 -60.125 34.6875 C-59 32 -59 32 -57 29 C-54.28540039 28.63110352 -54.28540039 28.63110352 -50.84765625 28.62890625 C-48.96916992 28.60280273 -48.96916992 28.60280273 -47.05273438 28.57617188 C-44.42774462 28.56717778 -41.80273921 28.56186664 -39.17773438 28.56054688 C-31.01587594 28.43984627 -24.42907374 27.44215617 -17 24 C-16.26080322 23.66097656 -15.52160645 23.32195313 -14.76000977 22.97265625 C-12.39533826 21.6658382 -12.08734281 20.47535237 -11 18 C-9.54351471 15.453371 -8.01610662 12.94900569 -6.5 10.4375 C-6.09652344 9.76525391 -5.69304687 9.09300781 -5.27734375 8.40039062 C-3.5672213 5.5586525 -1.84055853 2.7608378 0 0 Z M48 13 C46.26352052 14.67488528 46.26352052 14.67488528 45 17 C45.11145701 21.34682352 46.92642988 24.01180683 50 27 C52.66928121 27.41870553 52.66928121 27.41870553 55 27 C54.62345214 20.84971823 52.90024754 17.77780324 49 13 C48.67 13 48.34 13 48 13 Z M37 29 C36.01 30.98 35.02 32.96 34 35 C34.37511719 35.54527344 34.75023438 36.09054688 35.13671875 36.65234375 C38.24750338 41.23624553 41.07501678 45.86216699 43.70703125 50.734375 C45.51481999 53.90210149 47.57372004 56.87548502 49.66796875 59.859375 C52.92164105 65.08815042 53.90749642 69.92916186 53 76 C52.06640625 77.9609375 52.06640625 77.9609375 50.9375 79.75 C48.69491923 82.79370069 48.69491923 82.79370069 49.25 85.9375 C49.4975 86.618125 49.745 87.29875 50 88 C51.485 88.495 51.485 88.495 53 89 C58.69631462 83.91950318 61.08764781 79.31300616 61.5625 71.8125 C61.29301346 62.45746726 55.68473988 54.68989967 50.5078125 47.22265625 C48.86669152 44.80349087 47.36622656 42.32660306 45.875 39.8125 C42.61244286 34.29142466 42.61244286 34.29142466 39 29 C38.34 29 37.68 29 37 29 Z M58 35 C56.94450237 37.67555475 56.87370205 38.70704731 58.03222656 41.39428711 C58.56299805 42.2631958 59.09376953 43.13210449 59.640625 44.02734375 C60.21683594 44.98447266 60.79304688 45.94160156 61.38671875 46.92773438 C62.00160156 47.92095703 62.61648437 48.91417969 63.25 49.9375 C64.14912109 51.4215332 64.14912109 51.4215332 65.06640625 52.93554688 C66.18878282 54.78585059 67.31618361 56.63312264 68.45019531 58.47631836 C68.96163086 59.3091333 69.47306641 60.14194824 70 61 C70.54237305 61.86310791 71.08474609 62.72621582 71.64355469 63.61547852 C74.22267515 68.14936433 74.33080695 71.75947392 73 76.75 C70.68174619 82.21897148 67.26712256 87.06528363 64 92 C62.91312409 93.70608166 61.82980917 95.41443692 60.75 97.125 C58.60272499 100.50415841 56.43726157 103.8706507 54.25390625 107.2265625 C53.76889648 107.97276855 53.28388672 108.71897461 52.78417969 109.48779297 C51.82690181 110.95928215 50.86800322 112.42971867 49.90722656 113.89892578 C47.11657489 118.18937693 44.49716204 122.53200984 42 127 C43.32 128.98 44.64 130.96 46 133 C48.57487267 131.71256366 48.94188161 130.47961008 50.25 127.9375 C51.9658534 124.7429847 53.76899126 121.8577612 56 119 C58.64302247 115.59508585 60.68863908 112.07152795 62.7265625 108.28125 C65.40708077 103.47933997 68.56631649 98.97287317 71.796875 94.52734375 C77.58726869 86.5222482 83.2633022 77.95215489 81.62890625 67.6640625 C80.12108499 61.72643097 77.38009047 56.99919986 73.9609375 51.95703125 C72.53395557 49.80518798 71.23490792 47.69453731 69.9765625 45.44921875 C69.6364917 44.85471924 69.2964209 44.26021973 68.94604492 43.64770508 C67.983542 41.95592737 67.03629449 40.25549751 66.08984375 38.5546875 C64.17689019 35.70854173 64.17689019 35.70854173 60.75390625 35.1328125 C59.84511719 35.08898438 58.93632812 35.04515625 58 35 Z M27 45 C25.34678067 47.23955306 23.81654644 49.47530095 22.3125 51.8125 C21.86914307 52.49086914 21.42578613 53.16923828 20.96899414 53.86816406 C19.63913358 55.90774793 18.31922922 57.95352927 17 60 C16.28070313 61.10214844 15.56140625 62.20429687 14.8203125 63.33984375 C11.4355929 68.43530266 11.4355929 68.43530266 9 74 C10.0344716 76.04436988 10.0344716 76.04436988 11.625 78.125 C13.78700647 81.19863593 15.7393465 84.24257494 17.5 87.5625 C19.92166299 92.04297095 22.84039158 96.01520176 26 100 C37.53304462 86.47127777 37.53304462 86.47127777 41.65625 69.7265625 C39.56000981 61.01718361 34.30321807 52.16380088 29 45 C28.34 45 27.68 45 27 45 Z M44 94 C38.50589978 98.66166079 35.45371766 104.75942083 32 111 C33.98 113.97 33.98 113.97 36 117 C39.06012993 113.30435776 41.74394338 109.48990285 44.3125 105.4375 C44.68439453 104.87353516 45.05628906 104.30957031 45.43945312 103.72851562 C46.97212086 101.28823459 48.02059862 99.5875511 47.91796875 96.66015625 C47.04491504 94.6387508 47.04491504 94.6387508 44 94 Z " fill="#D021A1" transform="translate(81,16)"/>
<path d="M0 0 C12.38198267 4.95279307 19.62444112 22.96069325 26.23046875 34.09765625 C29.33436513 39.18859446 32.55671437 44.20650614 35.77490234 49.22583008 C41.80580672 58.69506768 44.61794587 65.48947084 43 77 C41.19176525 81.42705748 38.76293647 85.1155764 36 89 C31.83838191 95.15734384 27.78894404 101.38684357 23.75 107.625 C22.04478871 110.24864671 20.33813282 112.87134713 18.63085938 115.49365234 C17.58911004 117.09464017 16.54861811 118.69644735 15.50976562 120.29931641 C14.17922488 122.34940691 12.84086581 124.39415284 11.5 126.4375 C11.11553711 127.03320801 10.73107422 127.62891602 10.33496094 128.24267578 C6.94372303 133.37997101 3.03062761 137.45992872 -2 141 C-8.10153557 133.24381072 -8.10153557 133.24381072 -7.75 128.9375 C-5.87162233 125.7845089 -3.82612129 122.89251486 -1.53515625 120.02734375 C0.16991211 117.77561225 1.57004823 115.43498247 3 113 C4.68808181 110.31745415 6.3952858 107.64756948 8.1015625 104.9765625 C9.35172281 103.0164346 10.5966586 101.05296317 11.8359375 99.0859375 C14.35305029 95.09592902 16.84767014 91.14407082 19.6875 87.375 C24.49889494 80.72161888 27.94744037 72.9638878 26.62890625 64.6640625 C24.82716093 57.56899085 21.07537455 51.99270962 17 46 C15.67938547 43.98446015 14.36660708 41.96375969 13.0625 39.9375 C12.18271484 38.58978516 12.18271484 38.58978516 11.28515625 37.21484375 C10 35 10 35 10 33 C8.02 33 6.04 33 4 33 C4.57128745 36.89400242 5.70163124 39.50810654 7.8359375 42.80078125 C8.40570313 43.69603516 8.97546875 44.59128906 9.5625 45.51367188 C10.160625 46.43728516 10.75875 47.36089844 11.375 48.3125 C22.09109327 64.86629038 22.09109327 64.86629038 20.6875 71.75 C19.03943912 78.39310961 14.92160587 83.51262475 11 89 C9.88224559 90.72041462 8.77770276 92.44949559 7.6875 94.1875 C4.60497315 99.05576655 1.49772469 103.90745335 -1.625 108.75 C-2.08044189 109.45922607 -2.53588379 110.16845215 -3.00512695 110.89916992 C-5.88485061 115.35895592 -8.883488 119.70213869 -12 124 C-14.7316026 120.8131303 -16.90029436 118.08288503 -18 114 C-17.05859375 111.60546875 -17.05859375 111.60546875 -15.4375 109.1875 C-14.87804687 108.32253906 -14.31859375 107.45757812 -13.7421875 106.56640625 C-12.64401048 104.94868808 -11.54514739 103.33143524 -10.4453125 101.71484375 C-9.76082031 100.68037109 -9.76082031 100.68037109 -9.0625 99.625 C-8.64097656 99.01914063 -8.21945313 98.41328125 -7.78515625 97.7890625 C-6.77708134 95.49205599 -7.1783207 94.31703355 -8 92 C-11.67049854 92.59933417 -11.93815729 92.91716762 -14.359375 96.16015625 C-15.16846555 97.45337476 -15.96496703 98.7545379 -16.75 100.0625 C-17.36681641 101.05733398 -17.36681641 101.05733398 -17.99609375 102.07226562 C-19.00824336 103.70818186 -20.00557507 105.35324932 -21 107 C-24.75856617 105.2958054 -26.29822136 103.85139376 -28 100 C-27.63455805 95.58486458 -25.78045477 92.87511396 -23.25 89.3125 C-15.75038615 78.92164035 -15.75038615 78.92164035 -13.30859375 66.69140625 C-15.31197549 58.89293156 -19.69464858 51.2572654 -24.265625 44.671875 C-26 42 -26 42 -26 39.4375 C-24.77096109 36.44171766 -23.21688527 34.35124195 -21 32 C-20.34 32 -19.68 32 -19 32 C-15.13385194 36.79583763 -12.21202045 42.33082299 -9.29296875 47.734375 C-7.48518001 50.90210149 -5.42627996 53.87548502 -3.33203125 56.859375 C-0.07835895 62.08815042 0.90749642 66.92916186 0 73 C-0.93359375 74.9609375 -0.93359375 74.9609375 -2.0625 76.75 C-4.30508077 79.79370069 -4.30508077 79.79370069 -3.75 82.9375 C-3.5025 83.618125 -3.255 84.29875 -3 85 C-1.68 85 -0.36 85 1 85 C1.68774405 83.67741528 2.34711373 82.34013497 3 81 C3.53625 79.989375 4.0725 78.97875 4.625 77.9375 C7.07620062 71.96825498 7.10637673 65.97695182 4.86328125 59.94140625 C2.18034672 54.41357525 -0.9947886 49.26733371 -4.4921875 44.22265625 C-6.67888836 40.99925525 -8.63497895 37.64994338 -10.6015625 34.2890625 C-11.80764092 32.31486709 -13.0980305 30.5222923 -14.5 28.6875 C-16 26 -16 26 -15.4375 23.4375 C-14.963125 22.633125 -14.48875 21.82875 -14 21 C-13.46375 20.071875 -12.9275 19.14375 -12.375 18.1875 C-11.92125 17.465625 -11.4675 16.74375 -11 16 C-8 17 -8 17 -6.125 20 C-4.30587128 23.20670627 -4.30587128 23.20670627 -1.25 23.875 C-0.5075 23.91625 0.235 23.9575 1 24 C-0.34392404 18.1356042 -2.66043752 14.00934371 -6 9 C-3.03 4.545 -3.03 4.545 0 0 Z " fill="#4391ED" transform="translate(135,19)"/>
<path d="M0 0 C2.8203125 -0.29296875 2.8203125 -0.29296875 6.125 -0.1875 C7.76855469 -0.14689453 7.76855469 -0.14689453 9.4453125 -0.10546875 C10.70988281 -0.05326172 10.70988281 -0.05326172 12 0 C9.94716031 5.42671972 7.03984024 10.07657776 4 15 C3.18593727 16.34359211 2.37215362 17.68735334 1.55859375 19.03125 C0.68548108 20.45869147 -0.18821794 21.88577446 -1.0625 23.3125 C-1.67931641 24.33500854 -1.67931641 24.33500854 -2.30859375 25.37817383 C-5.80319817 31.0339518 -9.29779671 36.13660716 -16 38 C-18.26296407 38.28121242 -20.53630662 38.48704889 -22.8125 38.625 C-23.97394531 38.69976562 -25.13539062 38.77453125 -26.33203125 38.8515625 C-27.21246094 38.90054688 -28.09289063 38.94953125 -29 39 C-29 40.65 -29 42.3 -29 44 C-20.24616625 44.50502887 -10.52460113 43.25234655 -3.515625 37.5703125 C1.22361775 32.66006615 4.35005572 26.48431282 7.578125 20.53125 C9.96601684 16.28027771 12.56178921 12.15727341 15.1328125 8.015625 C17.02619332 5.08466374 17.02619332 5.08466374 18.35546875 2.12890625 C20 0 20 0 22.91796875 -0.48828125 C24.53638672 -0.40126953 24.53638672 -0.40126953 26.1875 -0.3125 C27.27417969 -0.26738281 28.36085938 -0.22226563 29.48046875 -0.17578125 C30.72763672 -0.08876953 30.72763672 -0.08876953 32 0 C30.88653397 3.49946467 29.63910312 6.72179377 28 10 C28 10.66 28 11.32 28 12 C30.84484034 11.72843114 30.84484034 11.72843114 34 10 C34.95673781 8.32501555 35.84648355 6.61097565 36.6875 4.875 C38.15625 2.1640625 38.15625 2.1640625 40 0 C43.80252917 -1.01619314 47.17126885 -0.84147937 51 0 C51.99 0.66 52.98 1.32 54 2 C51.84901218 8.06187475 48.55762971 13.66355543 45 19 C44.34 19 43.68 19 43 19 C42.73832031 19.71414062 42.47664063 20.42828125 42.20703125 21.1640625 C40.94440917 24.13061147 39.4362482 26.66851165 37.6875 29.375 C37.06746094 30.33535156 36.44742188 31.29570313 35.80859375 32.28515625 C34.33290339 34.50028542 32.82268541 36.66619073 31.25 38.8125 C28.98332811 41.8490703 28.98332811 41.8490703 27.59375 44.84375 C26.00942832 47.98132823 24.22944316 50.78563633 22.25 53.6875 C18.87792386 58.6709557 15.6275992 63.71385245 12.4453125 68.8203125 C11 71 11 71 9 73 C6.1380255 73.18820955 3.3735521 73.25171793 0.51123047 73.22705078 C-0.36688293 73.22734283 -1.24499634 73.22763489 -2.14971924 73.22793579 C-5.06084981 73.22653912 -7.97172647 73.21096213 -10.8828125 73.1953125 C-12.89777486 73.19158357 -14.91273904 73.18873603 -16.92770386 73.18673706 C-22.23782332 73.17909118 -27.54783382 73.1594345 -32.85791016 73.1373291 C-38.27374803 73.11689121 -43.68960345 73.10773975 -49.10546875 73.09765625 C-59.73702711 73.07618951 -70.3685045 73.04204207 -81 73 C-81.21512717 69.34283819 -81.20583855 66.55505183 -79.92445374 63.0997467 C-78 61 -78 61 -74.97312927 60.38768005 C-73.73088089 60.39308304 -72.48863251 60.39848602 -71.20874023 60.40405273 C-70.522108 60.3999942 -69.83547577 60.39593567 -69.1280365 60.39175415 C-67.63680954 60.3862344 -66.14550559 60.39225287 -64.654356 60.40841484 C-62.28586912 60.43383767 -59.91912313 60.42903513 -57.55055237 60.41651917 C-52.51267796 60.39574687 -47.47533902 60.41542474 -42.4375 60.4375 C-36.62116199 60.45866703 -30.80538836 60.46298879 -24.98906136 60.43699837 C-22.67014833 60.43366428 -20.35233758 60.45477634 -18.03355408 60.47740173 C-8.7653684 60.49583374 -0.75153257 59.77962818 6.75 53.8125 C11.92218881 47.34726399 16.11259224 40.27076217 20.375 33.1875 C20.82834717 32.4459668 21.28169434 31.70443359 21.7487793 30.94042969 C22.37973511 29.87743652 22.37973511 29.87743652 23.0234375 28.79296875 C23.40419434 28.1589917 23.78495117 27.52501465 24.17724609 26.87182617 C25.26826031 24.7304655 25.26826031 24.7304655 25 21 C22.66151614 20.91958697 22.66151614 20.91958697 20 22 C17.98139084 24.28568667 16.52166603 26.86622242 15 29.5 C14.34100708 30.59223877 14.34100708 30.59223877 13.66870117 31.70654297 C11.42429108 35.45265075 9.31882589 39.24565891 7.3125 43.125 C4.73367 47.93267593 0.88524856 51.55737572 -4 54 C-7.6533469 54.36787174 -11.33143878 54.43240539 -15 54.5625 C-16.15089111 54.6049585 -17.30178223 54.64741699 -18.48754883 54.69116211 C-36.6498288 55.27386517 -54.83106589 55.08413341 -73 55 C-69.11764706 47.11764706 -69.11764706 47.11764706 -67 45 C-64.85613343 44.84141158 -62.70733162 44.74870702 -60.55859375 44.68359375 C-58.60083008 44.62075195 -58.60083008 44.62075195 -56.60351562 44.55664062 C-55.2148467 44.51682392 -53.82617478 44.47711175 -52.4375 44.4375 C-51.04490817 44.39432011 -49.65232972 44.350706 -48.25976562 44.30664062 C-44.83995199 44.20014124 -41.42006237 44.09813077 -38 44 C-38.495 42.02 -38.495 42.02 -39 40 C-46.92 39.67 -54.84 39.34 -63 39 C-63 38.34 -63 37.68 -63 37 C-62.34 37 -61.68 37 -61 37 C-60.71125 36.236875 -60.4225 35.47375 -60.125 34.6875 C-59 32 -59 32 -57 29 C-54.28540039 28.63110352 -54.28540039 28.63110352 -50.84765625 28.62890625 C-48.96916992 28.60280273 -48.96916992 28.60280273 -47.05273438 28.57617188 C-44.42774462 28.56717778 -41.80273921 28.56186664 -39.17773438 28.56054688 C-31.01587594 28.43984627 -24.42907374 27.44215617 -17 24 C-16.26080322 23.66097656 -15.52160645 23.32195313 -14.76000977 22.97265625 C-12.39533826 21.6658382 -12.08734281 20.47535237 -11 18 C-9.54351471 15.453371 -8.01610662 12.94900569 -6.5 10.4375 C-6.09652344 9.76525391 -5.69304687 9.09300781 -5.27734375 8.40039062 C-3.5672213 5.5586525 -1.84055853 2.7608378 0 0 Z " fill="#8610E7" transform="translate(81,16)"/>
<path d="" fill="#4296ED" transform="translate(0,0)"/>
<path d="" fill="#D923A5" transform="translate(0,0)"/>
<path d="" fill="#477BF0" transform="translate(0,0)"/>
</svg>
