<svg width="40" height="40" viewBox="0 0 40 40" fill="none" xmlns="http://www.w3.org/2000/svg">
<path fill-rule="evenodd" clip-rule="evenodd" d="M25.2029 34.7651L25.1356 8.58021C24.9614 8.40384 24.6215 8.4571 24.4887 8.49639L23.6037 8.77405C23.4945 8.41018 23.3527 8.05714 23.1802 7.71932C22.5523 6.50568 21.6345 5.86393 20.5235 5.86219H20.5201C20.4459 5.86219 20.3726 5.86917 20.2984 5.87528L20.2898 5.87616C20.2576 5.8361 20.2243 5.79708 20.1897 5.75916C19.7067 5.23528 19.0856 4.97946 18.3421 5.00129C16.9085 5.0432 15.481 6.09269 14.3226 7.9568C13.5075 9.26911 12.889 10.9167 12.7122 12.1923L9.88903 13.0785C9.05838 13.3431 9.03251 13.3693 8.92296 14.163C8.84102 14.7637 6.6665 31.8061 6.6665 31.8061L24.8907 35L25.2029 34.7651ZM19.2323 6.19834C18.9899 6.03681 18.7061 5.96172 18.3697 5.96871C16.1564 6.03332 14.226 9.53715 13.7335 11.8719L15.8536 11.2066L16.2323 11.0878C16.51 9.60526 17.207 8.06682 18.1187 7.0767C18.4375 6.72191 18.8138 6.42485 19.2314 6.19834H19.2323ZM17.2803 10.7587L20.3234 9.80346C20.3329 9.00018 20.2466 7.81274 19.8499 6.97454C19.4272 7.15091 19.0718 7.46 18.8165 7.73678C18.1325 8.48155 17.5744 9.61748 17.2812 10.7587H17.2803ZM21.2765 9.50485L22.6911 9.06043C22.4651 8.31653 21.9286 7.06971 20.8409 6.86016C21.1791 7.74464 21.2662 8.76881 21.2765 9.50485Z" fill="#95BF47"/>
<path d="M29.2862 10.5283C29.1775 10.5196 27.0712 10.4864 27.0712 10.4864C27.0712 10.4864 25.309 8.75242 25.1347 8.57518C25.0673 8.51215 24.9818 8.47241 24.8906 8.46167V34.9958L32.7874 33.006C32.7874 33.006 29.5648 10.9239 29.5441 10.7728C29.5342 10.7087 29.5033 10.6498 29.4564 10.6054C29.4095 10.5611 29.3501 10.534 29.2862 10.5283Z" fill="#5E8E3E"/>
<path d="M20.5156 14.6485L19.5979 18.127C19.5979 18.127 18.5749 17.6547 17.3612 17.7324C15.5826 17.8459 15.5637 18.9836 15.5818 19.2691C15.6784 20.8232 19.716 21.1637 19.9429 24.8073C20.1214 27.6737 18.4429 29.6356 16.0243 29.7893C13.1218 29.9753 11.5234 28.2395 11.5234 28.2395L12.1384 25.587C12.1384 25.587 13.7471 26.8172 15.0341 26.7343C15.8759 26.681 16.1761 25.9877 16.1459 25.4971C16.0191 23.4688 12.731 23.5875 12.5231 20.254C12.3489 17.4469 14.1663 14.6049 18.1781 14.3482C19.7238 14.2486 20.5156 14.6494 20.5156 14.6494" fill="white"/>
</svg>
