<svg width="40" height="40" viewBox="0 0 40 40" fill="none" xmlns="http://www.w3.org/2000/svg">
<path d="M33.1253 18.7497C34.851 18.7497 36.25 17.3507 36.25 15.625C36.25 13.8992 34.8509 12.5002 33.1251 12.5002C31.3992 12.5002 30 13.8994 30 15.6252V18.7497H33.1253ZM24.375 18.7497C26.1009 18.7497 27.5 17.3506 27.5 15.6247V6.87525C27.5 5.14936 26.1009 3.75024 24.375 3.75024C22.6491 3.75024 21.25 5.14935 21.25 6.87524V15.6247C21.25 17.3506 22.6491 18.7497 24.375 18.7497Z" fill="#2EB67D"/>
<path d="M6.87473 21.2503C5.14899 21.2503 3.75 22.6493 3.75 24.375C3.75 26.1008 5.14913 27.4998 6.87487 27.4998C8.60076 27.4998 10 26.1006 10 24.3748V21.2503H6.87473ZM15.625 21.2503C13.8991 21.2503 12.5 22.6494 12.5 24.3753V33.1248C12.5 34.8506 13.8991 36.2498 15.625 36.2498C17.3509 36.2498 18.75 34.8506 18.75 33.1248V24.3753C18.75 22.6494 17.3509 21.2503 15.625 21.2503Z" fill="#E01E5A"/>
<path d="M21.25 33.1253C21.25 34.851 22.649 36.25 24.3748 36.25C26.1005 36.25 27.4995 34.8509 27.4995 33.1251C27.4995 31.3992 26.1004 30 24.3745 30L21.25 30L21.25 33.1253ZM21.25 24.375C21.25 26.1009 22.6492 27.5 24.375 27.5L33.1245 27.5C34.8504 27.5 36.2495 26.1009 36.2495 24.375C36.2495 22.6491 34.8504 21.25 33.1245 21.25L24.3751 21.25C22.6492 21.25 21.25 22.6491 21.25 24.375Z" fill="#ECB22E"/>
<path d="M18.7495 6.87473C18.7495 5.14899 17.3505 3.75 15.6247 3.75C13.899 3.75 12.5 5.14913 12.5 6.87487C12.5 8.60076 13.8991 10 15.625 10L18.7495 10L18.7495 6.87473ZM18.7495 15.625C18.7495 13.8991 17.3504 12.5 15.6245 12.5L6.875 12.5C5.14911 12.5 3.75 13.8991 3.75 15.625C3.75 17.3509 5.14911 18.75 6.875 18.75L15.6245 18.75C17.3504 18.75 18.7495 17.3509 18.7495 15.625Z" fill="#36C5F0"/>
</svg>