<svg width="40" height="40" viewBox="0 0 40 40" fill="none" xmlns="http://www.w3.org/2000/svg">
<g clip-path="url(#clip0_2315_6179)">
<path d="M20 40C31.0457 40 40 31.0457 40 20C40 8.9543 31.0457 0 20 0C8.9543 0 0 8.9543 0 20C0 31.0457 8.9543 40 20 40Z" fill="white"/>
<path fill-rule="evenodd" clip-rule="evenodd" d="M40 20C40 31.0457 31.0457 40 20 40C8.95431 40 0 31.0457 0 20C0 8.95431 8.95431 0 20 0C31.0457 0 40 8.95431 40 20ZM20.7169 14.7649C18.7716 15.574 14.8838 17.2487 9.05336 19.7889C8.10659 20.1654 7.61063 20.5337 7.56548 20.8938C7.48918 21.5025 8.25139 21.7422 9.28932 22.0685C9.4305 22.1129 9.57679 22.1589 9.72677 22.2077C10.7479 22.5396 12.1216 22.928 12.8357 22.9434C13.4834 22.9574 14.2064 22.6903 15.0046 22.1422C20.4521 18.465 23.2642 16.6063 23.4407 16.5663C23.5653 16.538 23.7379 16.5025 23.8548 16.6064C23.9718 16.7104 23.9603 16.9072 23.9479 16.96C23.8724 17.2819 20.8804 20.0635 19.3321 21.503C18.8494 21.9517 18.507 22.27 18.437 22.3427C18.2802 22.5056 18.1204 22.6596 17.9668 22.8077C17.0181 23.7222 16.3067 24.408 18.0062 25.528C18.8229 26.0662 19.4765 26.5112 20.1285 26.9552C20.8405 27.4401 21.5507 27.9238 22.4696 28.5261C22.7037 28.6796 22.9272 28.839 23.145 28.9942C23.9737 29.585 24.7181 30.1157 25.6378 30.0311C26.1723 29.9819 26.7243 29.4794 27.0047 27.9806C27.6672 24.4386 28.9696 16.7641 29.2706 13.6016C29.2969 13.3245 29.2638 12.97 29.2371 12.8143C29.2105 12.6586 29.1548 12.4368 28.9525 12.2727C28.7129 12.0782 28.3429 12.0372 28.1775 12.0401C27.4252 12.0534 26.2711 12.4547 20.7169 14.7649Z" fill="url(#paint0_linear_2315_6179)"/>
</g>
<defs>
<linearGradient id="paint0_linear_2315_6179" x1="20" y1="0" x2="20" y2="39.7033" gradientUnits="userSpaceOnUse">
<stop stop-color="#2AABEE"/>
<stop offset="1" stop-color="#229ED9"/>
</linearGradient>
<clipPath id="clip0_2315_6179">
<rect width="40" height="40" fill="white"/>
</clipPath>
</defs>
</svg>