<svg width="40" height="40" viewBox="0 0 40 40" fill="none" xmlns="http://www.w3.org/2000/svg">
<path fill-rule="evenodd" clip-rule="evenodd" d="M31.4967 5H8.55263C6.57895 5 5 6.57895 5 8.55263V31.4474C5 33.4211 6.57895 35 8.55263 35H31.4474C33.4211 35 35 33.4211 35 31.4474V8.60197C35.0493 6.57895 33.4704 5 31.4967 5ZM17.9276 26.6612C17.9276 27.3026 17.3849 27.8454 16.7434 27.8454H11.7599C11.1184 27.8454 10.5757 27.3026 10.5757 26.6612V11.7599C10.5757 11.1184 11.1184 10.5757 11.7599 10.5757H16.7928C17.4342 10.5757 17.977 11.1184 17.977 11.7599V26.6612H17.9276ZM29.523 19.8026C29.523 20.4441 29.0296 20.9868 28.3388 21.0362C28.3388 21.0362 28.3388 21.0362 28.2895 21.0362H23.3059C22.6645 21.0362 22.1217 20.4934 22.1217 19.852V11.7599C22.1217 11.1184 22.6645 10.5757 23.3059 10.5757H28.3388C28.9803 10.5757 29.523 11.1184 29.523 11.7599V19.8026Z" fill="url(#paint0_linear_2704_8928)"/>
<defs>
<linearGradient id="paint0_linear_2704_8928" x1="20.0345" y1="35.0691" x2="20.0345" y2="5" gradientUnits="userSpaceOnUse">
<stop stop-color="#0052CC"/>
<stop offset="1" stop-color="#2684FF"/>
</linearGradient>
</defs>
</svg>
